<svg id="clock" xmlns="http://www.w3.org/2000/svg" viewBox="0 0 32 32">
	<path class="time__hour" d="M16.64425,16.59575a9.66476,9.66476,0,0,1-1.2625-1.12266c.025-.37422.00693-.74844.0125-1.12266V8.73714a11.60554,11.60554,0,0,1,1.25-1.12265,11.60554,11.60554,0,0,1,1.25,1.12265v5.61329c.00558.37422-.01248.74844.0125,1.12266A9.66476,9.66476,0,0,1,16.64425,16.59575Z" />
	<path class="time__minute" d="M5.48989,16.59575a10.30777,10.30777,0,0,1,1.39429-1.01c.46477.02.92953.00554,1.3943.01H15.25a12.4521,12.4521,0,0,1,1.39429,1,12.45338,12.45338,0,0,1-1.39429,1H8.27848c-.46477.00446-.92953-.01-1.3943.01A10.30777,10.30777,0,0,1,5.48989,16.59575Z" />
	<circle class="circle__2" cx="16.17449" cy="16.17449" r="2.67153" />
	<path class="circle__1" d="M16,32A16,16,0,1,1,32,16,16.01844,16.01844,0,0,1,16,32ZM16,3.55776A12.44224,12.44224,0,1,0,28.44224,16,12.456,12.456,0,0,0,16,3.55776Z" />
</svg>
