<svg id="databaseIcon" xmlns="http://www.w3.org/2000/svg" viewBox="0 0 32 32">
	<path d="M26.19112,10.29591c-2.9224,1.66578-7.73821,1.69673-10.187,1.68793h-.00982c-2.448.0088-7.26122-.02215-10.184-1.6862a1.42013,1.42013,0,0,0-1.89323.4181,3.043,3.043,0,0,0-.53428,1.73887c0,.11767.00976.24517.01958.37266.53936,4.99161,9.05168,5.05045,12.59191,5.04063h.00982c3.54023.00982,12.05249-.049,12.59185-5.04063a3.05866,3.05866,0,0,0-.58287-2.20742A1.39086,1.39086,0,0,0,26.19112,10.29591Z" />
	<path d="M26.19112,17.36655c-2.9224,1.66579-7.73821,1.69679-10.187,1.68793h-.00982c-2.448.00886-7.26122-.02208-10.184-1.68613a1.42006,1.42006,0,0,0-1.89323.41809,3.04266,3.04266,0,0,0-.53428,1.73881c0,.11767.00976.24517.01958.37266.53936,4.99161,9.05168,5.05045,12.59191,5.04063h.00982c3.54023.00982,12.05249-.049,12.59185-5.04063a3.05858,3.05858,0,0,0-.58287-2.20736A1.39087,1.39087,0,0,0,26.19112,17.36655Z" />
	<path d="M26.19112,24.42743c-2.9224,1.66579-7.73821,1.6968-10.187,1.68794h-.00982c-2.448.00886-7.26122-.02215-10.184-1.68614a1.42,1.42,0,0,0-1.89323.418,3.043,3.043,0,0,0-.53428,1.73887c0,.11768.00976.24517.01958.37266.53936,4.99162,9.05168,5.05045,12.59191,5.04064h.00982c3.54023.00981,12.05249-.049,12.59185-5.04064a3.05881,3.05881,0,0,0-.58287-2.20742A1.39095,1.39095,0,0,0,26.19112,24.42743Z" />
	<path d="M15.99852,10.81193l.00036-.04358.0003.04358c3.54328.00071,12.05357-.05765,12.59341-5.04375C29.16673.46538,17.58643.03615,16.08016.00281V0l-.08128.00126L15.91754,0V.00281C14.41127.03615,2.831.46538,3.40511,5.76818,3.945,10.75428,12.45524,10.81264,15.99852,10.81193Z" />
</svg>
