<svg id="editsvg" xmlns="http://www.w3.org/2000/svg" viewBox="0 0 32 32">
	<path class="editsvg-1" d="M22.60847,29.17189H3.33973A3.34325,3.34325,0,0,1,0,25.83216V6.56292A3.34325,3.34325,0,0,1,3.33973,3.22319H22.60847V5.28772H3.33973a1.27635,1.27635,0,0,0-1.2752,1.2752V25.83216a1.27635,1.27635,0,0,0,1.2752,1.27521H22.60847a1.27636,1.27636,0,0,0,1.2752-1.27521V20.35129H25.9482v5.48087A3.34325,3.34325,0,0,1,22.60847,29.17189Z" />
	<path class="editsvg-1" d="M31.55789,5.97012,28.858,3.27019a1.50928,1.50928,0,0,0-2.13449,0L25.538,4.4557l4.83446,4.83446,1.18551-1.18551A1.50931,1.50931,0,0,0,31.55789,5.97012Z" />
	<path class="editsvg-1" d="M12.14506,17.84862v4.77679l4.7998.09233L28.7407,10.9219,23.90623,6.08744Zm6.59323,2.03753L17.34293,21.2815l-3.76911-.0725V17.458L14.942,16.08985l.68087,3.11543ZM22.64922,8.7058a7.62106,7.62106,0,0,1-.29933,1.12336L18.07778,14.0931a9.24207,9.24207,0,0,1-1.11928.30341,9.25475,9.25475,0,0,1,.30341-1.11928l4.26394-4.2721A7.62816,7.62816,0,0,1,22.64922,8.7058Z" />
</svg>
