<svg id="fist" xmlns="http://www.w3.org/2000/svg" viewBox="0 0 2880 1800">
<path class="fist-1" d="M1058.50818,1672.58643,980.66956,948.39368l82.566-166.65021a61.4675,61.4675,0,0,0,5.6394-17.52893l26.7229-165.17627L1230.89038,462.999a31.67486,31.67486,0,0,0,8.48828-30.83538l-3.41553-12.66016a33.08175,33.08175,0,0,0-10.50268-16.43738l-87.68921-75.32184a35.62886,35.62886,0,0,0-33.07178-7.81207,57.18288,57.18288,0,0,0-23.12109-35.29565l-88.80316-63.89679a35.63166,35.63166,0,0,0-23.15613-6.33551A38.79986,38.79986,0,0,0,954.44,193.68158L840.626,114.71179a45.08312,45.08312,0,0,0-33.16144-7.11639,43.77628,43.77628,0,0,0-19.95746,9.005c5.64722-18.10339-3.497-37.58551-22.36768-45.93707L632.85449,12.13074A45.088,45.088,0,0,0,600.22864,10.673a40.786,40.786,0,0,0-23.97455,20.51618L514.41156,157.05383c-29.80371-4.17486-56.19965,5.86243-67.55084,11.171a27.01779,27.01779,0,0,0-10.46393,8.57416L255.20416,428.22845a52.3332,52.3332,0,0,0-10.06408,30.74921v47.47376a52.39159,52.39159,0,0,0,10.46771,31.30932L502.76636,871.93005,362.47052,1672.26318H0V1698H386.14618L532.00775,865.88361,278.56934,523.22632a28.07732,28.07732,0,0,1-5.6084-16.7749V458.97766a28.02127,28.02127,0,0,1,5.39105-16.47333L459.436,191.18262c8.1623-3.82032,36.98066-15.468,64.70832-5.22064,26.35376,9.74469,126.137,60.2489,211.34228,104.57739l-25.76379,83.42206-153.0846-6.15418c-17.24054-.8186-32.93243,8.89014-39.00274,23.86255L506.244,419.77637c-5.46869,13.486-1.88629,28.78161,9.12481,38.96429l83.59455,77.33252,69.47064,57.161,38.54864,99.84509,26.19849-8.66033-40.93951-106.0495-73.89527-60.75867-55.45538-51.30133h40.14771l9.85064,9.11273a68.77054,68.77054,0,0,0,29.548,15.95624l102.407,26.31134A54.23223,54.23223,0,0,0,784.75043,512.54L892.47961,563.713a55.10618,55.10618,0,0,0,21.017,4.13629,55.86382,55.86382,0,0,0,14.39563-1.96313l93.876,63.59076a38.032,38.032,0,0,0,40.59021,1.14087l-21.00147,129.798a37.026,37.026,0,0,1-3.40771,10.592L952.3208,943.84088l81.1377,754.48236H2879.93506v-25.73681ZM541.19952,164.74207,601.58319,41.84589a13.86543,13.86543,0,0,1,8.16229-6.98719,15.2663,15.2663,0,0,1,11.112.49555L753.13855,93.88678c6.98627,3.08789,10.06018,10.66388,6.994,17.2417L699.027,242.2146C645.176,214.55865,572.057,177.60864,541.19952,164.74207Zm58.83405,275.83056h-64.9635l-.03107-.02868a10.51888,10.51888,0,0,1-2.74408-11.73383l11.39154-28.10657a11.97025,11.97025,0,0,1,11.74079-7.18823l67.55523,2.71625Zm178.26331,42.72c-5.33289,8.20795-16.03351,12.15033-26.00837,9.59387l-102.407-26.31134a40.24936,40.24936,0,0,1-17.31818-9.34967l-6.9649-6.4414,27.60449-53.3371,56.50434,2.27283c12.06683.50982,23.074-6.75019,26.43908-17.62946l26.59442-86.10773c3.25635-10.5418-1.68451-21.66522-12.01641-27.04376-6.44532-3.35449-15.21308-7.90814-25.53962-13.24634L803.09424,138.955a14.27008,14.27008,0,0,1,9.54785-6.07514,15.12072,15.12072,0,0,1,11.29449,2.42719L937.7467,214.26959a12.63318,12.63318,0,0,1,3.70319,17.46967l-4.852,7.47729.00244.00177Zm153.53137,50.8902c-.89173.92181-1.732,1.72345-2.48835,2.36615a24.50042,24.50042,0,0,1-4.87969,3.1228l-5.54,1.88593a24.30551,24.30551,0,0,1-14.42035-1.04663L804.46136,492.97266,965.3075,244.98291c.00634-.00989.0097-.02155.016-.03052l1.5365-2.368a5.98372,5.98372,0,0,1,4.04425-2.59949,6.32838,6.32838,0,0,1,4.79333,1.07715l88.80322,63.89679c14.64783,10.52741,17.80726,29.80847,7.19971,43.8833L933.24835,532.61194C932.81946,533.181,932.3042,533.66125,931.82825,534.1828Zm117.34167,73.52838a8.74775,8.74775,0,0,1-10.97241.99811l-85.24017-57.74268a72.67825,72.67825,0,0,0,7.38946-9.31018l129.929-172.456h.00049l4.01477-5.33014.23132-.307.00049-.00091,11.84509-15.72559a8.38622,8.38622,0,0,1,5.93457-3.24579,8.6281,8.6281,0,0,1,6.53589,2.01068l87.68933,75.32184a7.68711,7.68711,0,0,1,2.44519,3.82032l3.41553,12.66015a7.365,7.365,0,0,1-1.97559,7.17383Z"/>
<path class="fist-2" d="M1140.50818,1774.26311l-77.83862-724.19275,82.566-166.6502a61.4675,61.4675,0,0,0,5.6394-17.52893L1177.5979,700.715l135.29248-136.03925a31.67488,31.67488,0,0,0,8.48828-30.83539l-3.41553-12.66015a33.08175,33.08175,0,0,0-10.50268-16.43738L1219.77124,429.421a35.62886,35.62886,0,0,0-33.07178-7.81207,57.18293,57.18293,0,0,0-23.12109-35.29566l-88.80316-63.89679a35.63178,35.63178,0,0,0-23.15613-6.33551A38.79987,38.79987,0,0,0,1036.44,295.35827L922.626,216.38848a45.08307,45.08307,0,0,0-33.16144-7.11639,43.77628,43.77628,0,0,0-19.95746,9.005c5.64722-18.10339-3.497-37.58551-22.36768-45.93707L714.85449,113.80743a45.08791,45.08791,0,0,0-32.62585-1.45771,40.786,40.786,0,0,0-23.97455,20.51618L596.41156,258.73052c-29.80371-4.17486-56.19965,5.86243-67.55084,11.171a27.01779,27.01779,0,0,0-10.46393,8.57416L337.20416,529.90514a52.3332,52.3332,0,0,0-10.06408,30.74921V608.1281a52.3916,52.3916,0,0,0,10.46771,31.30933L584.76636,973.60674,444.47052,1773.93987H0V1800H468.14618L614.00775,967.56029,360.56934,624.903a28.07735,28.07735,0,0,1-5.6084-16.77491V560.65435A28.02127,28.02127,0,0,1,360.352,544.181L541.436,292.85931c8.1623-3.82032,36.98066-15.468,64.70832-5.22065,26.35376,9.74469,126.137,60.2489,211.34228,104.5774l-25.76379,83.422-153.0846-6.15417c-17.24054-.8186-32.93243,8.89014-39.00274,23.86255L588.244,521.45306c-5.46869,13.486-1.88629,28.78161,9.12481,38.96429l83.59455,77.33252,69.47064,57.161L788.9826,794.756l26.19849-8.66034-40.93951-106.0495-73.89527-60.75866-55.45538-51.30133h40.14771l9.85064,9.11273a68.77054,68.77054,0,0,0,29.548,15.95624l102.407,26.31134a54.23223,54.23223,0,0,0,39.90613-5.14972l107.72918,51.17291a55.10618,55.10618,0,0,0,21.017,4.13629,55.86382,55.86382,0,0,0,14.39563-1.96313l93.876,63.59076a38.032,38.032,0,0,0,40.59021,1.14086l-21.00147,129.798a37.02611,37.02611,0,0,1-3.40771,10.592l-85.62842,172.83307,81.1377,754.48236H2880v-25.73682ZM623.19952,266.41875l60.38367-122.89618a13.86545,13.86545,0,0,1,8.16229-6.98718,15.26625,15.26625,0,0,1,11.112.49555l132.28107,58.53253c6.98627,3.08789,10.06018,10.66388,6.994,17.2417L781.027,343.89129C727.176,316.23534,654.057,279.28533,623.19952,266.41875Zm58.83405,275.83057h-64.9635l-.03107-.02869a10.51886,10.51886,0,0,1-2.74408-11.73382l11.39154-28.10657a11.97024,11.97024,0,0,1,11.74079-7.18823l67.55523,2.71625Zm178.26331,42.72c-5.33289,8.20795-16.03351,12.15033-26.00837,9.59387l-102.407-26.31134a40.24936,40.24936,0,0,1-17.31818-9.34967l-6.9649-6.4414,27.60449-53.3371,56.50434,2.27283c12.06683.50982,23.074-6.75019,26.43908-17.62946l26.59442-86.10773c3.25635-10.54181-1.68451-21.66522-12.01641-27.04376-6.44532-3.35449-15.21308-7.90814-25.53962-13.24634l77.90949-116.73755a14.27007,14.27007,0,0,1,9.54785-6.07513,15.12076,15.12076,0,0,1,11.29449,2.42718l113.81012,78.96259a12.63318,12.63318,0,0,1,3.70319,17.46967l-4.852,7.47729.00244.00177Zm153.53137,50.8902c-.89173.92181-1.732,1.72345-2.48835,2.36615a24.50086,24.50086,0,0,1-4.87969,3.1228l-5.54,1.88593a24.30551,24.30551,0,0,1-14.42035-1.04663l-100.03846-47.5384L1047.3075,346.6596c.00634-.00989.0097-.02155.01605-.03052l1.5365-2.368a5.98364,5.98364,0,0,1,4.04425-2.59949,6.32838,6.32838,0,0,1,4.79333,1.07715l88.80322,63.89679c14.64783,10.52741,17.80726,29.80847,7.19971,43.8833L1015.24835,634.28863C1014.81946,634.85772,1014.3042,635.33794,1013.82825,635.85949Zm117.34167,73.52838a8.74775,8.74775,0,0,1-10.97241.99811l-85.24017-57.74268a72.679,72.679,0,0,0,7.38946-9.31018l129.929-172.456h.00049l4.01477-5.33014.23132-.30695.00049-.00091,11.84509-15.72559a8.38622,8.38622,0,0,1,5.93457-3.24579,8.62805,8.62805,0,0,1,6.53589,2.01068l87.68933,75.32184a7.68712,7.68712,0,0,1,2.44519,3.82031l3.41553,12.66016a7.365,7.365,0,0,1-1.97559,7.17383Z"/>
</svg>