<svg id="gear" xmlns="http://www.w3.org/2000/svg" viewBox="0 0 32 32">
	<path class="gear-1" d="M24.68133,18.42861V16.142a.89648.89648,0,0,0-.89648-.89648H20.98146A8.82126,8.82126,0,0,0,19.89172,12.619l1.9836-1.9836a.89647.89647,0,0,0,0-1.26781L20.2584,7.75064a.89649.89649,0,0,0-1.26781,0L17.007,9.73424a8.82166,8.82166,0,0,0-2.62655-1.08973V5.84111a.89647.89647,0,0,0-.89647-.89647H11.19735a.89647.89647,0,0,0-.89647.89647v2.8034A8.82166,8.82166,0,0,0,7.67433,9.73424L5.69074,7.75065a.89647.89647,0,0,0-1.26781,0L2.80607,9.36756a.89649.89649,0,0,0,0,1.2678L4.78969,12.619A8.82124,8.82124,0,0,0,3.7,15.24551H.89648A.89648.89648,0,0,0,0,16.142v2.28662a.89648.89648,0,0,0,.89648.89648H3.7a8.82124,8.82124,0,0,0,1.08973,2.62654l-1.9836,1.9836a.89649.89649,0,0,0,0,1.26781l1.61684,1.61683a.89646.89646,0,0,0,1.2678,0l1.9836-1.9836A8.82142,8.82142,0,0,0,10.30088,25.926v2.80348a.89647.89647,0,0,0,.89647.89648H13.484a.89647.89647,0,0,0,.89647-.89648V25.926A8.82142,8.82142,0,0,0,17.007,24.83627l1.9836,1.98361a.89647.89647,0,0,0,1.2678,0L21.8753,25.203a.89647.89647,0,0,0,0-1.26782l-1.98359-1.98359a8.82126,8.82126,0,0,0,1.08974-2.62654h2.80339A.89648.89648,0,0,0,24.68133,18.42861ZM12.34066,20.86407a3.57882,3.57882,0,1,1,3.57878-3.57877A3.57875,3.57875,0,0,1,12.34066,20.86407Z" />
	<path class="gear-1" d="M30.2246,5.49464l-.28917-.7658a.32092.32092,0,0,0-.4136-.18687l-.93887.35452a3.15762,3.15762,0,0,0-.6971-.74183l.41347-.91516a.32094.32094,0,0,0-.16033-.4246l-.746-.337a.32092.32092,0,0,0-.4246.16032l-.41347.91516a3.15768,3.15768,0,0,0-1.01744-.0328L25.183,2.58168a.32092.32092,0,0,0-.4136-.18687l-.7658.28917a.32093.32093,0,0,0-.18687.4136l.35452.93887a3.15781,3.15781,0,0,0-.74183.6971l-.91516-.41347a.32092.32092,0,0,0-.42459.16034l-.337.746A.32093.32093,0,0,0,21.913,5.651l.91516.41347a3.15768,3.15768,0,0,0-.0328,1.01744l-.9389.35453a.32092.32092,0,0,0-.18686.4136l.28916.7658a.32093.32093,0,0,0,.4136.18687l.9389-.35453a3.15781,3.15781,0,0,0,.6971.74183l-.41347.91516a.32093.32093,0,0,0,.16033.42459l.746.337a.32091.32091,0,0,0,.42459-.16032l.41347-.91516a3.15774,3.15774,0,0,0,1.01745.0328l.35452.9389a.32093.32093,0,0,0,.4136.18687l.7658-.28917a.32092.32092,0,0,0,.18687-.4136l-.35453-.9389a3.15762,3.15762,0,0,0,.74183-.6971l.91517.41347a.32092.32092,0,0,0,.42459-.16032l.337-.746a.32091.32091,0,0,0-.16032-.42459l-.91516-.41347a3.15774,3.15774,0,0,0,.0328-1.01745l.93887-.35451A.32092.32092,0,0,0,30.2246,5.49464ZM26.39965,7.87087a1.28116,1.28116,0,1,1,.746-1.65111A1.28113,1.28113,0,0,1,26.39965,7.87087Z" />
	<path class="gear-1" d="M32,24.18415V23.3a.34662.34662,0,0,0-.34662-.34661H30.56947a3.41065,3.41065,0,0,0-.42134-1.01554l.767-.76694a.34662.34662,0,0,0,0-.49019l-.62517-.62517a.34662.34662,0,0,0-.49019,0l-.76694.76694a3.41063,3.41063,0,0,0-1.01554-.42133V19.31728a.34661.34661,0,0,0-.34661-.34661h-.88411a.34662.34662,0,0,0-.34662.34661V20.4012a3.41068,3.41068,0,0,0-1.01553.42133l-.76694-.76694a.34661.34661,0,0,0-.49019,0l-.62515.62516a.34661.34661,0,0,0,0,.49018l.76694.76695a3.41063,3.41063,0,0,0-.42133,1.01554H22.80376a.34661.34661,0,0,0-.34661.34661v.88411a.34661.34661,0,0,0,.34661.34661h1.08395A3.41063,3.41063,0,0,0,24.309,25.5463l-.76694.76694a.34662.34662,0,0,0,0,.49019l.62514.62514a.34662.34662,0,0,0,.49019,0l.76694-.767a3.4107,3.4107,0,0,0,1.01553.42134v1.084a.34662.34662,0,0,0,.34662.34661h.88411a.34661.34661,0,0,0,.34661-.34661V27.083a3.41065,3.41065,0,0,0,1.01554-.42134l.76694.767a.34662.34662,0,0,0,.49019,0l.62516-.62514a.3466.3466,0,0,0,0-.49019l-.76694-.76694a3.41065,3.41065,0,0,0,.42134-1.01554h1.08391A.34662.34662,0,0,0,32,24.18415Zm-4.77143.94165a1.38372,1.38372,0,1,1,1.38371-1.38371A1.3837,1.3837,0,0,1,27.22857,25.1258Z" />
</svg>
