<svg id="girl__features" xmlns="http://www.w3.org/2000/svg" viewBox="0 0 640 590">
<style>.bg-social {
    fill: #f2f2f2;
}

.bg {
    fill: #3dc7be;
}

.bg-shadow {
    fill: #0ca89c;
}

.girl__hair {
    fill: #50788d;
}

.jacket {
    fill: #f75940;
}

.jacket-2 {
    fill: #f75940;
}

.tshirt {
    fill: #f0f3f1;
}

.tablet {
    fill: #5e6271;
}

.tablet-circle {
    fill: #fff;
}

.cls-9 {
    fill: #fff;
}

.skin {
    fill: #ffaea2;
}

.trousers {
    fill: #334252;
}

.trousers-shadow {
    fill: #2c3a47;
}</style>
	<g id="bg">
		<path class="bg-social" d="M588.89681,348.3262l-293-50.36,5.79,55.96L562.78469,368.9118a8.52542,8.52542,0,0,1,6.51131,13.39033,222.62992,222.62992,0,0,1-182.49923,94.22408c-122.57,0-221.94-97.92-221.94-218.7s99.37-218.7,221.94-218.7a222.785,222.785,0,0,1,171.13,79.44l-299.47,61.32-1.44,17.28,321.12-49.68-4.72-8.06a216.20262,216.20262,0,0,1,15.48005,208.9Z" />
		<path class="bg" d="M585.33675,411.72622c-17.28,97.92-57.6,139.68-210.24,168.48-95.04,17.93-221.89,3.49-300.97-42.29-36.55-21.16-62.9-49.01995-71.18-83.47a102.55558,102.55558,0,0,1-2.25-34.08c12.96-133.92,162-262.8,162-262.8l117.36,19.44,23.04,141.12s17.28,93.6,97.92,116.64S602.61678,313.80618,585.33675,411.72622Z" />
		<path class="bg-shadow" d="M411.5768,512.04617c-71.85,21.85-225.71,46.27-337.45,25.87-36.55-21.16-62.9-49.01995-71.18-83.47,26.23-11.13,62.57-25.1,75.51-23.04,21.12,3.36,210.24-21.12,252-10.08S504.69679,483.72622,411.5768,512.04617Z" />
	</g>
	<g id="girl">
		<path class="girl__hair" d="M281.73677,236.04623l-.62-.1a.0347.0347,0,0,1-.02-.01,115.89908,115.89908,0,0,0-17.84-5.88995c-10.16-2.13-22.05-16.23-22.42-16.67l-.01-.01a44.54192,44.54192,0,0,0,10.42-8.36005,45.31439,45.31439,0,0,0,12.01-30.01l-9.34-.09-28.63995-.29-5.7-25.69-6.48,24.84h-11.88v-16.56l-6.42,17.12-13.05-.13-7.05-.07a45.38609,45.38609,0,0,0,10.02,28.56,60.32156,60.32156,0,0,0,8.74,8.16c.38,5.47-1.31,23.58-25,30.87l-3.96-16.11-6.12,21.32995-11.52,3.81s-13.19995-6.42-14.16-15.06-.72-24.96,16.08-58.07995,26.52-56.76,48-62.64,70.92.84,82.92,45.12C279.69679,160.08621,287.37679,213.96621,281.73677,236.04623Z" />
		<path class="jacket" d="M241.41676,221.8862l-.59-8.52a79.68993,79.68993,0,0,0,12.59,11.8,14.19182,14.19182,0,0,0-2.79-.28h-8.91Z" />
		<path class="jacket-2" d="M301.68678,353.92617c.05,4.28.3,7.37-2.19,11.01-1.89,2.75-4.45,5.03-6,8.02a17.5273,17.5273,0,0,0-1.16,3.57,26.41,26.41,0,0,1-4.77,9.33c-2.09,2.64-5.09,4.24-7.22,6.77-2.34,2.78-.92005,7.31-.86005,10.61.08,4.91.23,9.82.59,14.73-5.78.17-11.05-2.71-16.24-4.89-4.8-2.01-9.77-3.61-14.74-5.14l-.12006-.04c-2.65-.82-5.18-1.57-7.37994-2.2-4.5-1.3-7.62006-2.13-7.62006-2.13,11.85-13.68,18.08-62.21,18.67-67.05a13.77023,13.77023,0,0,0,11.75-13.62v-84.24a13.65234,13.65234,0,0,0-3.7-9.38,17.29249,17.29249,0,0,0,2.56.77,115.89908,115.89908,0,0,1,17.84,5.88995c7.06994,2.92005,14.98,5.89,19.31994,12.5,3.67005,5.58,5.19,12.43006,6.76,18.81,7.2,29.28-4.8,54.24-5.51995,57.36-.99006,4.3-.21,9.37-.15,13.75Z" />
		<path class="jacket-2" d="M205.65686,385.56617c-2.4-17.76-5.04-43.44-3.36005-47.76,1.4-3.6-3.7-94.61-5.44-124.78-1.16-.68-3.60669-3.50665-3.4-2.18.31524,2.02362-4.454,16.77112-5.32,14.88-3.03,5.30255-9.15845,9.40021-14.1438,12.56067a117.10715,117.10715,0,0,1-19.16046,9.50727c-4.99,2.00494-10.8559,3.06543-15.45258,5.77069a29.83367,29.83367,0,0,0-11.16809,12.05352,38.159,38.159,0,0,0-3.77465,12.33149,51.84822,51.84822,0,0,0-.44141,8.11212c.0614,3.02386.85254,6.15765.684,9.15057-.2005,3.5586-1.1496,6.93323-1.16492,10.56311-.05206,12.31616,6.34638,23.64337,6.107,35.97235-.14044,7.23462-2.45783,14.4159-.67054,21.6175a62.65954,62.65954,0,0,0,6.62531,16.92041c4.44019,7.51025,10.3302,18.30029,20.10016,24.08026a28.49235,28.49235,0,0,0,13.98,4c18.72.48,26.88.24,26.88.24a15.23625,15.23625,0,0,0,4.81-4.02C204.17682,401.14619,206.95685,395.18616,205.65686,385.56617Z" />
		<path class="tshirt" d="M243.81679,225.48623h-53.76c2.8-4.11,3.34-10.83,3.4-14.64a45.51727,45.51727,0,0,0,18.37,7.69,44.97554,44.97554,0,0,0,17.97-.69,36.49034,36.49034,0,0,0,11.03418-4.48053C240.971,218.90573,243.81679,225.48623,243.81679,225.48623Z" />
		<polygon class="tshirt" points="197.257 409.086 243.817 407.166 257.257 334.206 230.857 330.606 198.937 329.886 191.497 363.966 197.257 409.086" />
		<path class="tablet" d="M260.69684,229.27619a13.76273,13.76273,0,0,0-7.28-4.11,14.19193,14.19193,0,0,0-2.79-.28h-64.8a13.77635,13.77635,0,0,0-13.77,13.77v84.24a13.77634,13.77634,0,0,0,13.77,13.77h64.8a13.5353,13.5353,0,0,0,2.02-.15,13.77022,13.77022,0,0,0,11.75-13.62v-84.24A13.65233,13.65233,0,0,0,260.69684,229.27619Z" />
		<circle class="tablet-circle" cx="218.22678" cy="257.10621" r="11.88" />
		<path class="skin" d="M178.05678,282.84621s-18.96,14.64-18.96,38.64-20.64,32.16-21.84,44.16,3.12,41.76,16.08,39.12,20.16-7.92,20.4-27.12-10.8-47.28.24-52.8,19.92-11.04,22.56-31.68C196.53678,293.16621,195.33678,275.88621,178.05678,282.84621Z" />
		<path class="skin" d="M244.29678,255.72621s-.72,17.52,23.52,27.84l-.48,36.48s-14.16,23.28-6,38.4,31.2,3.84,31.68-9.6-4.8-16.56-6-23.52-2.88-39.84-5.04-44.64-.72-17.52-4.08-23.28-15.12-13.68-23.04-10.8S244.05678,251.88621,244.29678,255.72621Z" />
		<path class="trousers" d="M346.05678,468.60617c-15.12,8.88-40.56,16.32-40.56,16.32,1.0724,1.16177,2.52386,2.44943,2.95016,4.04966,2.67392,10.03719,4.0774,20.09978,2.18259,30.18846-1.24745,6.64194-6.27635,9.82459-12.266,7.96508a26.43578,26.43578,0,0,1-9.42679-5.48317c-24.96-.96-29.76-6-29.76-6l-.37-2.85-1.31-10.11a169.066,169.066,0,0,1-16.64,6.68c-6.93,2.31-14.07,3.92-17.19995,2.2-1.64-.9-3.35-3-5.02-5.68-5.43-8.72-10.34-23.6-10.34-23.6l-2.63995.96c-13.2,9.12-33.36,9.6-33.36,9.6l-6.72,3.48c11,10.17,10.63,19.02,6.01,24.48a17.27645,17.27645,0,0,1-14.29,5.76c-12.24-1.08-31.32,6.12-43.2,2.52s-5.4-18.72-5.4-27.36,7.2-15.12,7.2-15.12c-42.12-9.72-45.72-22.32-45.72-22.32-22.32-30.96-4.32-49.32,12.6-55.8s62.64,22.68,66.24,20.88c3.1-1.55,5.94-19.95,6.66-25a28.49239,28.49239,0,0,0,13.98005,4c18.72.48,26.88.24,26.88.24a15.23634,15.23634,0,0,0,4.81-4.02l40.25,1.11,1.26.03,37.22,12.24-1.94,12.72s-1.92,3.84,35.28-18.72c22.56443-13.68422,38.41786-12.44531,47.3996-9.35231a20.23332,20.23332,0,0,1,12.04654,11.56919C385.081,444.132,360.14866,460.33,346.05678,468.60617Z" />
		<path class="trousers-shadow" d="M317.01678,421.56621s-73.2,49.92-80.64,51.6c0,0,71.52-56.16,78.96-56.16S317.01678,421.56621,317.01678,421.56621Z" />
		<path class="trousers-shadow" d="M114.93678,424.20621l72.24,32.88s-67.2-19.2-72.24-28.08S114.93678,424.20621,114.93678,424.20621Z" />
		<path class="skin" d="M218.6368,505.8862c-3.42,2.08-9.58,3.99-20.48,4.84,0,0-12.8,12.64-26.57,10.08,4.62-5.46,4.99-14.31-6.01-24.48l6.72-3.48s20.16-.48,33.36005-9.6l2.63995-.96S213.2068,497.16616,218.6368,505.8862Z" />
		<path class="skin" d="M258.80678,512.79617c-5.72-.47-13.24-1.44995-17.95-3.43a169.066,169.066,0,0,0,16.64-6.68Z" />
		<path class="skin" d="M263.25679,174.99618l-1.69354-.01629a.859.859,0,0,0-.10645-.01368l-36.18-.35-5.7-25.69-6.48,24.84h-11.88v-16.56l-6.42,17.12c-3.25-.04-6.5-.06-9.75-.09q-1.64649-.01977-3.29944-.03943l-.00055-.00061-.2959-.00293c-.47522-.00567-.94751-.01135-1.42407-.017-.23224-.00184-.446-.00477-.651-.00361l-4.679-.04644a45.50256,45.50256,0,0,0,5.8227,22.35962,40.36109,40.36109,0,0,0,10.31732,12.37042c.85.7,1.72,1.36,2.62,1.99,1.1.77,2.24,1.5,3.4,2.18a43.66944,43.66944,0,0,0,32.94,4.82A42.68115,42.68115,0,0,0,254.631,200.8605,45.33652,45.33652,0,0,0,263.25679,174.99618Z" />
	</g>
	<g id="social">
		<g id="facebook">
			<circle class="trousers" cx="374.98779" cy="51.7631" r="49.44" />
			<path class="cls-9" d="M379.37182,80.07379V54.24621h8.66954l1.29814-10.06577h-9.96768V37.7539c0-2.91487.80858-4.9,4.9882-4.9l5.32987-.00239v-9.0033a71.62413,71.62413,0,0,0-7.76759-.39582c-7.68385,0-12.94552,4.69017-12.94552,13.30532v7.42272h-8.69109V54.24621h8.69109V80.07379Z" />
		</g>
		<g id="twitter">
			<circle class="trousers" cx="590.37644" cy="318.38549" r="49.44" />
			<path class="cls-9" d="M610.71316,304.53321a6.3644,6.3644,0,0,1-1.84908.24119l.03364-.19638c.9623-.77076,3.39117-3.13537,3.71179-4.24192.13935-.478-.02535-.64271-.02632-.65874l-3.10181,1.31748-2.59546,1.17082h0a10.35083,10.35083,0,0,0-7.53568-3.10468c-5.39574,0-9.77069,3.82149-9.77069,8.53848a12.66977,12.66977,0,0,0,.3995,3.22113c0,.24751.00976-.24806,0,0-3.47447-.09552-7.92786-1.52023-11.894-3.53009-7.82314-3.96316-8.31288-6.70689-8.31288-6.70689-1.22876,1.30434-1.86271,5.62422-.6173,9.01158.79765,2.16866,3.53837,4.11473,3.53837,4.11473h0a8.31832,8.31832,0,0,1-2.50929-.41122,5.55066,5.55066,0,0,1-1.76922-.86389c-.76346,1.86123.76844,5.18622,3.4156,7.57127a14.02674,14.02674,0,0,0,4.36083,2.26319l-4.40269.12376c-.24756,4.27949,8.97451,6.82144,8.97451,6.82144h0a15.07279,15.07279,0,0,1-9.20066,3.34439,17.5261,17.5261,0,0,1-5.02392-.73719,23.95719,23.95719,0,0,0,16.35572,5.86007c16.46587-.8658,25.761-15.01972,26.20339-28.92023l.02094.02823a11.56656,11.56656,0,0,0,2.42108-2.03471,17.05277,17.05277,0,0,0,2.675-3.57932S611.74857,304.2477,610.71316,304.53321Z" />
			<path class="cls-9" d="M612.58416,299.67835c.01172.26261,0,.02535,0,0Z" />
		</g>
		<g id="instagram">
			<circle class="trousers" cx="577.05644" cy="140.90549" r="49.44" />
			<path class="cls-9" d="M586.19089,163.65885H567.9226A14.72164,14.72164,0,0,1,553.21835,148.954V132.85583a14.72088,14.72088,0,0,1,14.70425-14.7037h18.26829a14.72062,14.72062,0,0,1,14.70363,14.7037V148.954A14.72139,14.72139,0,0,1,586.19089,163.65885ZM567.9226,121.41979a11.44885,11.44885,0,0,0-11.43615,11.436V148.954a11.44893,11.44893,0,0,0,11.43615,11.43641h18.26829A11.449,11.449,0,0,0,597.62668,148.954V132.85583a11.44889,11.44889,0,0,0-11.43579-11.436Z" />
			<path class="cls-9" d="M577.05678,153.99417a13.08871,13.08871,0,1,1,13.0885-13.08886A13.103,13.103,0,0,1,577.05678,153.99417Zm0-22.91056a9.8213,9.8213,0,1,0,9.8209,9.8217A9.8326,9.8326,0,0,0,577.05678,131.08361Z" />
			<path class="cls-9" d="M592.66071,128.21913a2.71589,2.71589,0,1,1-2.71519-2.71634A2.71538,2.71538,0,0,1,592.66071,128.21913Z" />
		</g>
	</g>
</svg>
