<svg id="handshake" data-name="Слой 3" xmlns="http://www.w3.org/2000/svg" viewBox="0 0 32 32">
	<path class="handshake-1" d="M26.25067,9.13567c-.81384-.84791-3.55969-3.413-6.71356-3.165a6.67016,6.67016,0,0,0-3.16565,1.19513,8.21387,8.21387,0,0,0-2.10315-.93671c-2.40521-.67755-5.43463-.08588-6.42914,2.31635L0,8.64543V19.97984l5.6413.0185c2.59179,2.66217,6.01672,5.8612,7.61621,5.98486.611.04663,1.27667.06293,1.90167.06293.522,0,1.01526-.01111,1.42328-.02515a2.23437,2.23437,0,0,0,1.892-1.17078.16308.16308,0,0,1,.1029-.08068l1.22113-.311a1.95545,1.95545,0,0,0,1.26477-1.019l.28144-.56281a.72133.72133,0,0,1,.451-.37243l1.41955-.39844a2.05348,2.05348,0,0,0,1.26923-1.03967l.29944-.58649H32V9.13567ZM23.70844,19.25041,23.13379,20.376a.53285.53285,0,0,1-.3288.26953l-1.41882.39838a2.24092,2.24092,0,0,0-1.39807,1.15448l-.28064.56207a.44018.44018,0,0,1-.28363.22882l-1.22113.311a1.68571,1.68571,0,0,0-1.06336.83087.71721.71721,0,0,1-.6065.37469c-.70349.023-2.05048.05109-3.15833-.03479-.67828-.05255-3.179-1.96905-6.64465-5.52868a1.58384,1.58384,0,0,0-1.13226-.47913H5.30829V10.09459L8.9729,10.048l.14661-.55914a2.6692,2.6692,0,0,1,.08-.25843c.68647-1.88684,3.22052-1.94757,4.65717-1.541a6.43835,6.43835,0,0,1,1.19922.491c-.31641.27691-.63513.57037-.95929.90039-.92719.94342-3.74781,3.81445-1.67066,6.47955A3.09479,3.09479,0,0,0,16.167,16.72673a4.22414,4.22414,0,0,0,1.65656-1.62988,6.62527,6.62527,0,0,1,.69238-.87085,3.58689,3.58689,0,0,1,.99451-.63092c.14514-.07038.29693-.14295.45025-.23029l1.23645,1.87335c.59821.90638,1.40241,2.12488,2.498,3.78492A.22552.22552,0,0,1,23.70844,19.25041Zm2.98364-.28735H25.22962a4.27455,4.27455,0,0,0-.21633-.6574,10.52762,10.52762,0,0,0-.85575-1.334c-.32509-.48765-.65516-.972-.98293-1.45784q-.98426-1.459-1.89426-2.96078a1.24211,1.24211,0,0,0-.50963-.549,2.64678,2.64678,0,0,0-1.2782.01347A4.13417,4.13417,0,0,0,17.48218,13.116a7.58031,7.58031,0,0,0-.89085,1.09671,8.82775,8.82775,0,0,1-.723.91445,1.31067,1.31067,0,0,1-1.18136.27082,1.94562,1.94562,0,0,1-1.06439-.76983c-.87238-1.11817-.39252-2.50147,1.55579-4.48457a14.06123,14.06123,0,0,1,2.03715-1.68532,4.9606,4.9606,0,0,1,2.43636-.97538c2.92059-.21179,5.66717,2.87616,5.69384,2.90729l.2273.26215h1.119Z" />
	<polygon class="handshake-2" points="1.26 17.52 3.3 17.1 2.58 18.36 1.02 18.36 1.26 17.52" />
	<polygon class="handshake-2" points="30.78 17.52 28.74 17.1 29.46 18.36 31.02 18.36 30.78 17.52" />
</svg>
