<svg id="lock" xmlns="http://www.w3.org/2000/svg" viewBox="0 0 32 32">
<path class="lock-1" d="M26.36224,14.59711h-.38891c.00012-.023-.00006-.04669.00006-.06964H23.03424c-.00012.023.00006.04669-.00006.06964H8.68463c-.01684-2.96009.02155-6.22925,1.46179-8.44745a6.17344,6.17344,0,0,1,5.713-2.96918,6.17423,6.17423,0,0,1,5.71441,2.96918,6.48592,6.48592,0,0,1,.36261.66846l2.19306-2.10907c-.03247-.05225-.05542-.10853-.089-.16028A9.072,9.072,0,0,0,15.85944.24,9.07054,9.07054,0,0,0,7.67975,4.548c-1.907,2.93628-1.9549,6.67975-1.93427,10.04908H5.35773a1.47021,1.47021,0,0,0-1.47022,1.47021V30.76971A1.47019,1.47019,0,0,0,5.35773,32.24H26.36224a1.47023,1.47023,0,0,0,1.47028-1.47028V16.06732A1.47026,1.47026,0,0,0,26.36224,14.59711Z"/>
<path class="lock-2" d="M21.89746,6.74622c1.10779,2.18383,1.15222,5.141,1.13672,7.84875h2.93915c.02063-3.34711-.03089-7.06195-1.90088-9.98871Z"/></svg>