<svg xmlns="http://www.w3.org/2000/svg" viewBox="0 0 32 32">
<polygon class="cls-1" points="9.11 23.16 14.02 19.25 2.83 11.03 11.47 10.85 14.56 1.27 12.74 1.5 10.2 9.48 0.76 9.43 0 10.89 10.45 18.53 9.11 23.16"/>
<polygon class="cls-1" points="19.56 25.09 17.38 19.21 6.07 27.26 8.6 18.99 0.48 13.06 0.13 14.86 6.9 19.77 3.9 28.73 5.05 29.9 15.58 22.37 19.56 25.09"/>
<polygon class="cls-1" points="32 14.12 31.71 12.5 18.77 12.8 17.01 8.3 15.5 14.4 29.38 14.11 22.64 19.51 26 28.99 27.31 27.71 24.48 19.82 32 14.12"/>
<polygon class="cls-1" points="7.61 12.93 12.91 16.29 17.02 3.04 20.02 11.14 30.08 10.94 29.27 9.29 20.9 9.49 17.86 0.55 16.23 0.31 12.43 12.68 7.61 12.93"/>
<polygon class="cls-1" points="24.66 15.7 18.39 15.85 22.33 29.15 15.34 24.08 7.08 29.84 8.67 30.75 15.52 25.94 23.01 31.69 24.5 30.98 20.79 18.58 24.66 15.7"/>
</svg>