<svg id="pay" xmlns="http://www.w3.org/2000/svg" viewBox="0 0 32 32">
<path d="M29.94,3.54H2.06A2.06,2.06,0,0,0,0,5.6V26.4a2.06,2.06,0,0,0,2.06,2.06H29.94A2.06,2.06,0,0,0,32,26.4V5.6A2.06,2.06,0,0,0,29.94,3.54ZM2.06,4.91H29.94a.69.69,0,0,1,.69.69v4H1.37v-4A.69.69,0,0,1,2.06,4.91ZM29.94,27.09H2.06a.69.69,0,0,1-.69-.69V15.86H30.63V26.4A.69.69,0,0,1,29.94,27.09Z"/><path class="cls-1" d="M8.26,23.14H4.31a.68.68,0,0,0-.69.68.69.69,0,0,0,.69.69h4A.69.69,0,0,0,9,23.82.68.68,0,0,0,8.26,23.14Z"/><path class="cls-1" d="M17,23.14H11.12a.68.68,0,0,0-.69.68.69.69,0,0,0,.69.69H17a.68.68,0,0,0,.68-.69A.67.67,0,0,0,17,23.14Z"/></svg>