<svg id="rewards" xmlns="http://www.w3.org/2000/svg" viewBox="0 0 32 32">
<path d="M31.86,9.48a4.56,4.56,0,0,0-4.61-4.07H24.06a10.06,10.06,0,0,1,.27-1.89C24.69,2.19,23,.84,21.59.84H10.41C9,.84,7.31,2.19,7.67,3.52a10.06,10.06,0,0,1,.27,1.89H4.75A4.56,4.56,0,0,0,.14,9.48a5.79,5.79,0,0,0,.11,2.27l0,.07a7.68,7.68,0,0,0,4.36,4.65A14.46,14.46,0,0,0,7.7,17.59c1,.22,2.14.21,3.19.5a3.41,3.41,0,0,1,1.28.63,7.92,7.92,0,0,1,1.11,2.66,14.12,14.12,0,0,1-.06,3.25,1.53,1.53,0,0,1-1.06,1.22c-1.13.38-2.48,0-3.46.84s-1,2.79-1,4.24v.23H24.33v-.23c0-1.45.09-3.28-1-4.24s-2.33-.46-3.46-.84a1.53,1.53,0,0,1-1.06-1.22,14.12,14.12,0,0,1-.06-3.25,3.89,3.89,0,0,1,.88-2.44,6.64,6.64,0,0,1,1.51-.85c1.05-.29,2.14-.28,3.19-.5a14.46,14.46,0,0,0,3.07-1.12,7.68,7.68,0,0,0,4.36-4.65l0-.07A5.79,5.79,0,0,0,31.86,9.48ZM1.41,9.66a3.28,3.28,0,0,1,3.34-3H8c.08,3.2-.18,7.31.36,9.32a1.78,1.78,0,0,0,.21.48C4.83,15.62.86,13.38,1.41,9.66Zm22,6.82a1.78,1.78,0,0,0,.21-.48c.54-2,.28-6.12.36-9.32h3.25a3.28,3.28,0,0,1,3.34,3C31.14,13.38,27.17,15.62,23.43,16.48Z"/></svg>