<svg id="bgRv" xmlns="http://www.w3.org/2000/svg" viewBox="0 0 2880 1800"><defs><style>.cls-1{fill:#c2c3c9;}.cls-2{fill:#444242;}.cls-3{fill:#494949;}</style></defs><title>Безымянный-2</title><path class="cls-1" d="M103.41,1596.03262s19.88638-208.038,19.88638-258.51822c0-50.47979-6.11885-120.84553,0-156.0284,6.11843-35.18287-32.12365-113.19729-36.71269-145.32094S63.63811,990.2743,63.63811,956.62082c0,0-1.00059-39.11845-3.7233-78.32922-2.72313-39.21035-4.90172-106.19525-4.90172-106.19525s14.15977-17.427,27.23-17.427l2.7227-22.87285s-14.15934-44.11206-10.34713-58.2714,7.94987-21.78376,14.86682-21.23922,9.63965-8.169,16.175-8.169c6.53492,0,12.63207-9.258,18.297-8.16854,5.66493,1.08908,12.74481,5.44583,23.09193,5.44583s16.88235,9.80259,17.97151,17.427a78.85863,78.85863,0,0,0,2.723,12.52529s5.44592,8.169,7.07971,13.6148c1.63375,5.44626,1.08917,19.06106-7.07971,26.685-8.16888,7.62443-27.22981,22.32831-28.31889,25.596s-1.63362,29.95272-1.63362,29.95272,12.52572,4.9013,9.258,27.77414-2.17858,80.59971.54455,101.294c2.72313,20.69468,11.981,76.24295,16.3378,84.41192s23.96205,40.84439,26.685,45.74568,5.99051,3.26767,16.88234,3.26767,23.41747,15.79339,27.22964,21.78377,27.22942,28.31867,33.22022,33.22c5.99038,4.90129,13.07026-1.63363,13.07026-1.63363S291.36638,1069.44374,293,1055.82894v-8.71351s-2.17816,5.44584-9.25805-3.81221c-7.07945-9.258-10.34712-26.14051,2.72313-34.854s-4.35675-11.98075,10.34713-36.48764C311.51609,947.4551,324.58635,920.77,369.243,919.136c44.65661-1.63362,65.89583,28.86365,68.074,33.2204,2.17859,4.35675-4.35675,17.427-4.35675,17.427s15.24885,28.86322,15.24885,46.83477-20.69468,33.22-20.69468,33.22-3.81222,46.83519-48.46882,74.06479c0,0-9.80259,2.72313-11.98075,13.07025-2.17859,10.34713,3.81221,15.24843,1.63362,28.86322-2.17816,13.6148,10.8921,35.9431,20.15014,47.37974,9.25805,11.43621,27.2296,31.04181,32.67543,41.38893s12.52572,40.8444,12.52572,65.35086c0,24.50689-7.07988,57.72686-7.07988,74.06479s10.34712,69.16307,15.24842,84.41192c4.90171,15.24842-9.80259,142.68289-9.80259,142.68289L400.8293,1809H108.92775s3.26767-37.57672-7.624-64.80632C90.41165,1716.96409,103.41,1596.03262,103.41,1596.03262Z"/><path class="cls-1" d="M1556.6369,1635.36676s-15.33308-160.40856-15.33308-199.33089c0-38.92276,4.71794-93.1786,0-120.30652s24.76895-87.281,28.30723-112.04992c3.53863-24.76895,17.692-35.38409,17.692-61.33232,0,0-.5756-7.71461,1.52386-37.94811a222.769,222.769,0,0,0-3.86283-56.97046s-1.928-60.79672-12.00585-60.79672l-2.09989-17.63631s10.91762-34.01254,7.97837-44.93015-6.12948-16.79654-11.463-16.37665c-5.33309.4199-7.433-6.29838-12.47168-6.29838-5.0391,0-9.74-7.13859-14.10787-6.2988-4.36823.83978-9.82683,4.19892-17.80517,4.19892s-13.01711,7.55848-13.8569,13.43739a60.843,60.843,0,0,1-2.09988,9.658s-4.19892,6.29838-5.4586,10.49772c-1.25964,4.19892-.83978,14.69665,5.4586,20.57514,6.2988,5.87891,20.99545,17.21643,21.83523,19.73578.83979,2.51978,1.26014,23.09534,1.26014,23.09534s-2.42026,31.35577.09909,48.99208c2.51978,17.63632-5.55815,34.56984-7.65761,50.52616-2.09946,15.95675-9.238,58.78744-12.59718,65.08583-3.35957,6.2988-18.4761,31.49318-20.57556,35.27263-2.09989,3.779-55.00842,41.15112-59.62723,44.93015s-10.07783-1.25967-10.07783-1.25967-7.97838-10.49773-9.23805-20.99546v-6.7187s1.67957,4.19935,7.13859-2.93924c5.45859-7.13859,7.97837-20.15567-2.09946-26.87437-10.07784-6.71827,3.35913-9.238-7.97838-28.13362-11.33751-18.896-21.41534-39.47155-55.84777-40.73123-34.43282-1.25968-49.12949,39.05124-49.12949,39.05124s-11.75741,22.25555-11.75741,36.11242,15.95633,25.61426,15.95633,25.61426,2.93967,36.11242,37.37209,57.10788c0,0,7.55848,2.09946,9.238,10.07783s-2.93967,11.7574-1.25967,22.25513c1.67956,10.49773-8.39827,27.71415-15.53686,36.53189-7.13859,8.81815-20.99545,23.93512-25.19437,31.91307-4.19935,7.97837-9.65792,31.49318-9.65792,50.38917s5.45857,44.51026,5.45857,57.10787c0,12.59719-7.97795,53.32842-11.7574,65.08583-3.779,11.7574,7.55848,110.016,7.55848,110.016l24.35459,144.86872h225.07149s-2.51974-28.97383,5.87849-49.96929S1556.6369,1635.36676,1556.6369,1635.36676Z"/><path class="cls-1" d="M387.77486,1225.011s-17.98048-81.72878-21.24943-99.70884c-3.26937-17.98048-26.15327-63.74829-29.42265-142.20769-3.26894-78.45941,13.07664-240.28206,13.07664-240.28206l24.51881-134.03491,13.07663-17.98006L399.2166,515.607s11.46982-51.18258,22.42743-68.53217S440.82,426.98591,453.6039,431.55154s20.0893,1.82634,33.78621,4.56564c13.69733,2.73929,22.8286,12.78394,21.00226,19.17592s6.392,21.91522,4.56563,34.69916-20.50707,35.781-28.30719,35.61255c-16.95053-.36586-36.5255,24.65494-36.5255,45.6572,0,0,17.25343,7.801,11.87056,22.82817-3.74584,10.45817-3.65225,21.91565-.913,32.87325s-9.13127,58.44073-9.13127,58.44073l-8.21832,94.05369,6.392,118.70778-3.65268,37.43889,36.5255,1.82634-2.73929-24.65494s-11.871,10.95761-19.17592-7.30493c-7.30536-18.263-11.871-40.17819,0-48.3965,11.87056-8.21831-17.34959-31.95987,4.56563-63.91974s44.74382-50.22283,65.74608-49.30945c21.00226.913,55.70141,9.13127,63.91973,20.08888s18.263,37.43889,18.263,57.52776c0,20.08931-.91338,33.78621,5.4786,40.17819s7.30535,36.5255-6.392,41.09156c0,0-10.04465,34.69917-14.61029,50.22241s-5.47859,17.34958,19.17592,33.78621c24.65494,16.43662,23.74156,32.87325,23.74156,32.87325s59.3541,31.95987,59.3541,90.40059c0,58.44115,28.30762,222.80613,28.30762,222.80613s64.83269,213.67443,62.09339,220.97978c-2.73928,7.30493,24.65452,38.35185,21.91522,72.13806s-28.30719,31.04648-47.48311,26.48085-30.13353-3.65268-30.13353-9.13127c0-5.479,9.13127-13.69733,15.52324-12.784,6.392.913-8.21831-11.871,12.784-19.17592,21.00226-7.30536-18.263-36.52551-18.263-36.52551l-10.9576,6.392L690.10734,1488.054s-15.52367,39.2648-10.04465,73.96439c5.47859,34.69916,52.96213,120.53412,52.96213,144.27567,0,23.742,6.392,97.706,6.392,97.706H401.55515s-1.82634-88.57425-3.65268-109.57651-47.48311-143.36315-18.26254-222.80613C408.86008,1392.17438,362.12359,1303.48186,387.77486,1225.011Z"/><path class="cls-1" d="M1447.75468,897.57727s-29.02658,151.80608-56.374,182.23783-38.60794,73.8657-43.43394,112.47364,1.60853,122.25836,0,151.21432,17.69549,78.82442,17.69549,101.34586-1.609,86.86788-1.609,86.86788,3.21747,146.38833,1.609,183.38775c-1.609,36.99943-19.5248,86.86789-19.5248,86.86789H1082.51709s-32.17343-188.21375-16.0865-262.21217c16.0865-73.99885,16.0865-148.32315,4.826-189.9852-11.26093-41.66248-36.99942-80.27043-36.99942-80.27043s-6.43449,147.99685,0,204.30024,1.60852,115.82385,6.43454,131.91035c4.826,16.08693,8.04344,35.3909-1.60855,35.3909,0,0,11.63914,20.9125,9.8413,56.303-1.79783,35.39091-1.08312,48.25994-17.527,48.25994-16.44428,0-27.70477-4.826-40.57425-4.826s-19.304-16.0865-22.52142-36.999c-3.21707-20.91293,14.478-53.08593,14.478-53.08593s-16.86843,1.60852-14.869-35.3909c1.99991-36.999-17.30406-218.77823-18.913-239.69073-1.60852-20.91292-3.217-139.95381,0-167.30124,3.21747-27.34744-1.22989-102.68892,99.92665-128.56015,0,0,30.50067-25.41729,32.407-27.32361,1.30988-1.30988,8.02009-11.32007,12.09051-17.45594a13.77014,13.77014,0,0,1,8.67819-5.87849c8.28341-1.7353,23.16086-5.24929,24.98252-8.4374,0,0,.58155-15.92187-2.87714-22.52485s-1.25754-35.53044-5.03062-35.216-7.54657-13.52036-7.54657-24.84,5.03107-30.18543,13.83517-29.24185c0,0,8.48973-34.5877,19.49456-42.76262,11.00526-8.17534,48.42245-26.098,80.80859-23.58245,32.38656,2.51553,55.6542,35.53087,54.711,63.51516-.94359,27.9843-8.83135,40.15649-10.08932,51.47613-1.25752,11.31965-15.06507,27.13133-20.09611,34.0487s-13.206,10.69086-10.69045,22.01008c2.5151,11.31965,19.809-10.06167,24.2108-10.69044,4.40227-.62878,12.00372,13.206,16.69273,16.66465,4.68858,3.45869,17.895.62878,21.98243-8.48973,4.08746-9.11808,12.26281-22.01009,19.49457-37.10238,7.23175-15.09271,39.61835-60.37086,40.87587-72.31928,1.258-11.94842,14.77833-47.16447,20.12376-53.45307s20.12334-58.7985,24.52561-70.43253c4.40185-11.6336,11.63361-52.19552,11.63361-52.19552l12.26283-43.70578s-3.45868-28.61307-8.80372-39.6179c-5.34544-11.00526.94316-36.15964,13.52035-38.04639,12.57719-1.88633,18.86579-4.71624,23.26767-2.5151,4.40224,2.20071,10.37645,6.2886,14.46391,6.2886s13.8352,1.88632,16.97946,4.40184,11.948,3.77308,13.52035,8.48974c1.57194,4.71623,7.86054,19.809-2.20113,29.55623,0,0-5.97421,27.35552-17.92263,37.41719-11.948,10.06209-13.52035,27.6699-15.09229,33.9585-1.57236,6.2886-1.57236,21.6957-1.57236,21.6957s9.74728.94359,7.23176,22.32447c-2.5151,21.38132-11.63357,44.335-12.57719,52.50991-.94317,8.17534-12.5772,60.99964-13.52036,70.11814s-1.57236,16.03588-1.57236,16.03588"/><path class="cls-1" d="M733.04184,1799.52583s5.09145-72.97656,0-139.16465,15.274-224.02071,15.274-224.02071-29.48393-66.773-37.41806-118.34574c-7.93413-51.57228-6.94247-78.3505-14.8766-97.19417-7.93455-18.84409-11.90161-130.91528-6.94247-147.77563,4.95873-16.85992,86.28463-43.63814,92.23544-53.556s-17.852-48.5973-28.76155-93.2271c-10.90953-44.63023,17.852-152.73436,62.48226-153.726,0,0,37.68731-22.81115,77.35883,9.91745,39.67106,32.729,27.76986,97.19459,44.62979,129.92363,16.86034,32.7286,35.70443,51.57227,35.70443,51.57227s9.31123-.79937,16.61233-6.275c7.30067-5.476,17.03519-40.76314,23.11916-65.70779,6.08439-24.94465,33.97212-82.71618,40.05608-97.31754,6.084-14.60178,37.21129-107.71486,46.94581-125.96719,9.73452-18.2519,13.99342-34.67874,17.644-37.72094,3.65013-3.0422,17.64355,0,17.64355,0s26.16136-34.07082,26.16136-49.8893-7.30068-36.50424-13.993-45.02205c-6.69275-8.51738-10.95165-24.33587,0-31.637,10.95123-7.30068,13.993-7.30068,13.993-7.30068s.60835-26.16136,4.86726-26.16136,10.95123,12.16794,10.95123,19.469c0,0,11.56,0,12.77671,6.084s10.95123,1.82506,15.81849,16.42684.60835,31.02862-7.3011,32.85368c0,0,7.3011,21.2941,1.21713,41.3715s-26.76971,65.09943-26.76971,65.09943,7.3007,11.55958,3.04177,28.5952c-4.25891,17.0352-35.11393,95.15682-35.11393,95.15682s-12.35852,38.97-25.74319,63.91463c0,0-12.7597,35.61808-23.10257,59.34559,0,0,7.30067,34.67917-31.637,116.20545-38.93807,81.52628-43.80533,121.68063-41.98027,134.45735,1.82549,12.77629,9.12619,82.13463,20.68575,130.19844,11.56,48.06424,14.60178,161.22749,14.60178,161.22749l-24.94463,14.60136s14.60175,66.92492,24.33627,102.8208c0,0,9.14957,111.77509-2.507,175.88542l-7.77077,64.88247Z"/><path class="cls-1" d="M1487.29473,1403.12093c1.68084-17.64057,7.56018-39.48177,13.44122-52.08278,5.87977-12.60059,35.282-21.84077,45.362-29.40138,10.08035-7.56019,12.601-36.962,25.20157-48.72237,12.60059-11.76081,14.28059-86.52457,62.16321-121.80656,0,0,31.08176-14.28058,43.68192,3.36041,0,0,31.08184,5.04,39.48219,39.48177s0,88.20456,0,88.20456l3.85607,1.92844c5.24925-12.97028,14.46731-36.42638,19.84422-50.08542.24164-1.34391.46711-2.66187.66115-3.92538.37986-2.46787,1.13881-3.40253,2.16068-3.23236.69642-1.76125,1.16863-2.94818,1.33327-3.34339,4.80345-11.526,29.37419-85.02666,37.05813-99.43444,7.68441-14.40736,11.0461-27.37467,13.92753-29.77575,2.88134-2.40151,13.92744,0,13.92744,0s6.07376-7.9286,11.63195-17.17431l2.59248-9.23975s-2.23985-18.53056-5.70232-25.65809c-3.46128-7.1271.61171-23.41781,8.75685-24.63962s12.21771-3.05454,15.06889-1.62894c2.85119,1.42516,6.72,4.07257,9.36781,4.07257,2.647,0,8.9594,1.22138,10.99547,2.85075,2.03692,1.629,7.73844,2.44363,8.75647,5.49816,1.01846,3.05454,5.091,12.829-1.42559,19.14189,0,0-3.86879,17.7163-11.60676,24.23249a20.11555,20.11555,0,0,0-3.18305,3.494c-6.59065,16.51235-15.47645,35.85972-15.47645,35.85972s5.7632,9.12489,2.40151,22.57207-27.71794,75.1143-27.71794,75.1143-9.75583,30.76146-20.32077,50.45214c0,0-8.856,24.72088-16.69146,43.24378-.21441-.2995-.44669-.55092-.66919-.82787-1.01676,1.81357-18.36421,32.93791-22.90347,53.81978-4.67709,21.51234-22.44784,46.76627-21.51277,65.47253.93555,18.70668-3.74116,19.34992,13.09493,51.297s23.55267,52.52437,31.41831,61.87771c7.86521,9.35334,20.96014,50.50787,18.15406,57.99063s-9.35373,24.31843-9.35373,24.31843,8.25745,24.31843,9.74086,41.15452c1.48345,16.83568,3.354,69.21413-5.0638,101.01531-8.41826,31.80119-9.35334,40.23221-9.35334,40.23221H1605.41372s-19.70387-38.09489-22.33085-63.05358c0,0-3.38339-43.6777-3.38339-51.23831s-4.2002-73.924-4.2002-73.924-84.00432-32.76179-97.44473-57.963C1464.61375,1527.44769,1485.61473,1420.76192,1487.29473,1403.12093Z"/><path class="cls-1" d="M1835.81236,1039.69223l-331.11785-205.4038s-10.58153-8.89048,4.59754-10.881c0,0,.43946-51.23661,71.6569-71.09023s91.66367-66.92535,102.20393-133.20448l127.75056,47.153s6.43027,89.83393-73.78486,131.30837c-80.21508,41.47487-83.09565,112.65487-83.09565,112.65487L1843.903,1027.92632S1850.93145,1040.83151,1835.81236,1039.69223Z"/><path class="cls-1" d="M273.07187,1455.08034c-1.50336-15.77807-6.76192-35.31262-12.02206-46.58291-5.25852-11.26987-31.55606-19.53456-40.5714-26.29665-9.01611-6.76166-11.27034-33.05873-22.54042-43.57731-11.26987-10.51857-12.77246-77.38734-55.5989-108.94348,0,0-27.79923-12.77246-39.06868,3.00519,0,0-27.79966,4.5082-35.31305,35.31262-7.51339,30.80485,0,78.89036,0,78.89036l-3.4489,1.72466c-4.695-11.60085-12.93965-32.57971-17.74863-44.79614-.21611-1.20225-.41776-2.38109-.59133-3.511-.33992-2.20709-1.01847-3.043-1.93227-2.89117-.62325-1.57534-1.04569-2.63677-1.19289-2.99029-4.29592-10.30884-26.272-76.04769-33.14467-88.93374-6.87313-12.88647-9.87959-24.48391-12.4568-26.63187-2.57678-2.14754-12.45637,0-12.45637,0s-5.43265-7.091-10.40371-15.36073l-2.31855-8.26384s2.00289-16.574,5.1-22.94857c3.09538-6.37453-.54751-20.94482-7.83245-22.03774s-10.9274-2.73206-13.47739-1.45707-6.01037,3.64247-8.37827,3.64247-8.01326,1.09291-9.83449,2.55c-1.82166,1.45708-6.92163,2.18582-7.8316,4.91789-.91126,2.73164-4.55373,11.47407,1.27456,17.11985,0,0,3.46039,15.84572,10.38116,21.674a17.97281,17.97281,0,0,1,2.84693,3.12473c5.89465,14.769,13.8424,32.073,13.8424,32.073s-5.15485,8.1613-2.14838,20.18842c3.00688,12.02712,24.79107,67.18188,24.79107,67.18188s8.72584,27.51335,18.17533,45.12457c0,0,7.92051,22.11049,14.9285,38.67729.19186-.268.39947-.49264.59857-.74066.90955,1.62214,16.42471,29.46009,20.48495,48.13656,4.18318,19.24059,20.07739,41.82755,19.24058,58.55857-.83638,16.73144,2.46788,50.926-12.59038,79.49956S-.64415,1667.61-1.971,1682.66822c-1.32647,15.05783.07785,54.16778-20.8355,90.34826C-37.53041,1798.48951-34.21339,1809-34.21339,1809H167.42626s17.62313-34.07209,19.97274-56.39529c0,0,3.026-39.06528,3.026-45.82737s3.75648-66.11747,3.75648-66.11747,75.13358-29.30183,87.15483-51.842S274.57442,1470.85842,273.07187,1455.08034Z"/><path class="cls-1" d="M1233.98453,1586.60823s19.886-208.038,19.886-258.51823c0-50.47979-6.11886-120.84553,0-156.0284s-32.12366-113.19728-36.71269-145.32094-22.94517-45.89075-22.94517-79.54423c0,0-1.00059-39.11845-3.72372-78.32922-2.72313-39.21035-4.90129-106.19526-4.90129-106.19526s14.15933-17.427,27.22959-17.427l2.72316-22.87284s-14.15979-44.11207-10.34758-58.2714,7.94987-21.78377,14.86681-21.23923,9.64008-8.169,16.175-8.169c6.53535,0,12.63208-9.258,18.297-8.16854,5.66493,1.08908,12.74481,5.44584,23.09194,5.44584,10.34755,0,16.88247,9.80258,17.97155,17.427a78.89075,78.89075,0,0,0,2.72313,12.52529s5.44583,8.169,7.07945,13.61479c1.63408,5.44626,1.08954,19.06106-7.07945,26.68506-8.169,7.62442-27.2296,22.3283-28.31868,25.596-1.08951,3.26767-1.63405,29.95273-1.63405,29.95273s12.52572,4.90129,9.25805,27.77414c-3.26725,22.87284-2.17817,80.5997.54454,101.294,2.72313,20.69468,11.98117,76.243,16.33793,84.41191s23.96192,40.8444,26.685,45.74569,5.99037,3.26767,16.88247,3.26767c10.89167,0,23.41738,15.79339,27.22959,21.78376s27.2296,28.31868,33.22,33.22,13.07023-1.63362,13.07023-1.63362,10.34713-13.6148,11.98117-27.2296v-8.7135s-2.17858,5.44583-9.258-3.81221c-7.07988-9.25805-10.34755-26.14052,2.7227-34.854s-4.35675-11.98075,10.34756-36.48764c14.70391-24.50647,27.77413-51.19152,72.43074-52.82557,44.6566-1.63362,65.89539,28.86364,68.074,33.22039,2.17817,4.35676-4.35675,17.427-4.35675,17.427s15.24846,28.86322,15.24846,46.83477-20.69429,33.22-20.69429,33.22-3.81221,46.8352-48.46882,74.06479c0,0-9.80258,2.72313-11.98117,13.07026-2.17817,10.34713,3.81221,15.24842,1.63405,28.86322-2.17859,13.6148,10.89166,35.9431,20.14971,47.37973,9.258,11.43621,27.22959,31.04181,32.67543,41.38894s12.52571,40.84439,12.52571,65.35086c0,24.50689-7.07988,57.72686-7.07988,74.06479s10.34755,69.16307,15.24885,84.41191c4.90133,15.24843-9.80259,142.6829-9.80259,142.6829l-31.58631,187.88447H1239.50226s3.26768-37.57673-7.62442-64.80632C1220.98617,1707.53969,1233.98453,1586.60823,1233.98453,1586.60823Z"/><path class="cls-1" d="M2597.18406,1644.79115s-15.33351-160.40855-15.33351-199.33089c0-38.92276,4.71794-93.1786,0-120.30651s24.769-87.281,28.30762-112.04992c3.53824-24.769,17.692-35.3841,17.692-61.33232,0,0-.576-7.71461,1.52387-37.94812a222.76876,222.76876,0,0,0-3.86284-56.97046s-1.92844-60.79671-12.00627-60.79671l-2.0994-17.63632s10.91756-34.01253,7.97831-44.93015c-2.93967-10.91762-6.12991-16.79653-11.46344-16.37664-5.33309.41989-7.43255-6.29838-12.47168-6.29838-5.03871,0-9.74005-7.13859-14.1078-6.29881-4.3683.83979-9.8269,4.19892-17.80527,4.19892s-13.01708,7.55848-13.85687,13.4374a60.82258,60.82258,0,0,1-2.09939,9.65794s-4.19941,6.29838-5.45909,10.49773c-1.25968,4.19892-.83978,14.69665,5.45909,20.57513,6.29831,5.87892,20.99539,17.21643,21.83517,19.73578.83985,2.51978,1.25968,23.09534,1.25968,23.09534s-2.41981,31.35577.09955,48.99209-5.55858,34.56983-7.658,50.52616c-2.09953,15.95675-9.23812,58.78744-12.59725,65.08582-3.35914,6.29881-18.4761,31.49318-20.57556,35.27263-2.09946,3.779-55.008,41.15113-59.62723,44.93016-4.61881,3.779-10.07783-1.25968-10.07783-1.25968s-7.97795-10.49773-9.238-20.99545v-6.7187s1.67993,4.19934,7.13859-2.93925c5.459-7.13859,7.97831-20.15567-2.09952-26.87436-10.07784-6.71828,3.35913-9.23806-7.97838-28.13362-11.33751-18.896-21.41534-39.47156-55.84777-40.73123s-49.12949,39.05123-49.12949,39.05123-11.75741,22.25556-11.75741,36.11242,15.95675,25.61427,15.95675,25.61427,2.93925,36.11242,37.37167,57.10787c0,0,7.55848,2.09946,9.23805,10.07784s-2.93924,11.7574-1.25967,22.25513-8.39827,27.71415-15.53686,36.53188c-7.13817,8.81816-20.99545,23.93512-25.19437,31.91307-4.19892,7.97838-9.65795,31.49318-9.65795,50.38918s5.459,44.51026,5.459,57.10787c0,12.59719-7.97838,53.32842-11.75741,65.08582-3.77945,11.7574,7.55806,110.016,7.55806,110.016L2367.85833,1809h225.07114s-2.51942-28.97383,5.87885-49.96928C2607.20616,1738.03526,2597.18406,1644.79115,2597.18406,1644.79115Z"/><path class="cls-1" d="M1578.67166,1225.011s-17.98048-81.72878-21.24943-99.70884c-3.26895-17.98048-26.15328-63.74829-29.42222-142.20769-3.26937-78.45941,13.07664-240.28206,13.07664-240.28206l24.51841-134.03491,13.0766-17.98006,11.44217-75.19046s11.46939-51.18258,22.42742-68.53217c10.95761-17.34958,19.17592-20.08887,31.95987-15.52324s20.08888,1.82634,33.78621,4.56564c13.6969,2.73929,22.82817,12.78394,21.00183,19.17592-1.82587,6.392,6.392,21.91522,4.56606,34.69916-1.82634,12.784-20.50745,35.781-28.30761,35.61255-16.95054-.36586-36.52551,24.65494-36.52551,45.6572,0,0,17.25344,7.801,11.871,22.82817-3.74627,10.45817-3.65268,21.91565-.91338,32.87325,2.73972,10.95761-9.13127,58.44073-9.13127,58.44073l-8.21831,94.05369,6.392,118.70778-3.65268,37.43889,36.526,1.82634-2.73972-24.65494s-11.8706,10.95761-19.176-7.30493c-7.30493-18.263-11.87056-40.17819,0-48.3965,11.871-8.21831-17.34958-31.95987,4.56564-63.91974,21.91564-31.95987,44.74381-50.22283,65.74611-49.30945,21.00222.913,55.70181,9.13127,63.91974,20.08888,8.21827,10.95761,18.26292,37.43889,18.26292,57.52776,0,20.08931-.913,33.78621,5.479,40.17819s7.30493,36.5255-6.392,41.09156c0,0-10.04465,34.69917-14.61024,50.22241s-5.47906,17.34958,19.17588,33.78621c24.65451,16.43662,23.74156,32.87325,23.74156,32.87325s59.35414,31.95987,59.35414,90.40059c0,58.44115,28.30715,222.80613,28.30715,222.80613s64.83312,213.67443,62.0934,220.97978c-2.7393,7.30493,24.655,38.35185,21.91564,72.13806-2.73972,33.7862-28.30762,31.04648-47.48354,26.48085s-30.13353-3.65268-30.13353-9.13127c0-5.479,9.13127-13.69733,15.52324-12.784,6.392.913-8.21788-11.871,12.784-19.17592,21.00226-7.30536-18.26254-36.52551-18.26254-36.52551l-10.95761,6.392-42.00452-93.14031s-15.52324,39.2648-10.04465,73.96439c5.47906,34.69916,52.96213,120.53412,52.96213,144.27567,0,23.742,6.392,97.706,6.392,97.706H1592.452s-1.82637-88.57425-3.65271-109.57651c-1.82591-21.00226-47.48308-143.36315-18.26254-222.80613S1553.02038,1303.48186,1578.67166,1225.011Z"/><path class="cls-1" d="M2489.72408,1089.96974s-23.07729,120.69189-44.81959,144.88635c-21.742,24.19446-30.69486,58.72617-34.53172,89.421s1.27918,97.20028,0,120.22142c-1.27884,23.02115,14.06859,62.66856,14.06859,80.574s-1.27884,69.06343-1.27884,69.06343,2.55768,116.38457,1.27884,145.80059S2408.91873,1809,2408.91873,1809H2199.34562s-25.57883-149.63744-12.78941-208.46914c12.78941-58.832,12.78941-117.92282,3.83685-151.04582-8.95255-33.12334-29.416-63.8182-29.416-63.8182s-5.11569,117.66341,0,162.42685c5.116,44.76345,1.27918,92.08458,5.116,104.874,3.83686,12.78975,6.39454,28.13718-1.27918,28.13718,0,0,9.25392,16.62626,7.82423,44.76311-1.42935,28.13718-.86079,38.36857-13.93461,38.36857s-22.02646-3.83686-32.25819-3.83686c-10.2314,0-15.34739-12.78941-17.90511-29.41568-2.558-16.62661,11.51061-42.20543,11.51061-42.20543s-13.41145,1.27884-11.82144-28.13718c1.58967-29.41568-13.75776-173.93742-15.0366-190.56369-1.27914-16.62661-2.558-111.26887,0-133.01117,2.55768-21.74231-.97811-81.6418,79.44534-102.21045,0,0,24.24959-20.20776,25.76519-21.72336,1.0414-1.04141,6.37593-8.99991,9.61243-13.87817a10.94607,10.94607,0,0,1,6.89951-4.67363c6.58564-1.37964,18.41381-4.1734,19.8621-6.70808,0,0,.46236-12.65852-2.28744-17.90815s-1.00014-28.24812-3.99984-27.99817-5.99953-10.74922-5.99953-19.74879,3.99955-23.99862,10.99917-23.24843c0,0,6.74968-27.49861,15.499-33.998,8.74962-6.49972,38.49778-20.74893,64.24639-18.749,25.74828,1.99994,44.247,28.24845,43.49712,50.49708s-7.02122,31.926-8.02107,40.92558c-1.00014,8.99957-11.97767,21.57049-15.97755,27.07007-3.9995,5.49959-10.49927,8.49967-8.49933,17.4989,1.99994,8.99957,15.74891-7.99943,19.24889-8.49933,3.49964-.4999,9.54344,10.49927,13.271,13.24906,3.72795,2.7498,14.22722.49991,17.47691-6.74967,3.25-7.24924,9.74942-17.4989,15.49929-29.49787,5.74959-11.99931,31.49782-47.99725,32.498-57.49672.99985-9.49947,11.749-37.49764,15.99885-42.49732s15.9992-46.74716,19.49884-55.99668c3.49964-9.24918,9.24952-41.49752,9.24952-41.49752l9.74942-34.74784s-2.74979-22.74853-6.99963-31.49781c-4.24983-8.74962.7499-28.74836,10.74922-30.2484,9.99937-1.4997,14.99911-3.7496,18.499-1.9996,3.49964,1.74965,8.24938,4.99968,11.49907,4.99968,3.25,0,10.99951,1.4997,13.49935,3.49964s9.49947,2.99975,10.74923,6.74968c1.25009,3.7496,6.24977,15.74891-1.74966,23.49838,0,0-4.74973,21.74874-14.2492,29.74816-9.49947,7.99977-10.74956,21.99869-11.99926,26.99837-1.25014,4.99969-1.25014,17.249-1.25014,17.249s7.74981.75019,5.74987,17.74885c-1.99994,16.999-9.24952,35.24808-9.99932,41.74747-.75024,6.49972-9.99942,48.49714-10.74961,55.74672-.74985,7.24958-1.24975,12.74916-1.24975,12.74916"/><path class="cls-1" d="M1923.93864,1799.52583s5.09146-72.97656,0-139.16465,15.27437-224.02071,15.27437-224.02071-29.48391-66.773-37.41847-118.34574c-7.93413-51.57228-6.94247-78.3505-14.8766-97.19417-7.93413-18.84409-11.90119-130.91528-6.94247-147.77563,4.95877-16.85992,86.285-43.63814,92.23544-53.556,5.95081-9.91788-17.852-48.5973-28.76154-93.2271-10.90954-44.63023,17.852-152.73436,62.48223-153.726,0,0,37.68776-22.81115,77.35884,9.91745,39.67107,32.729,27.76988,97.19459,44.63022,129.92363,16.86035,32.7286,35.704,51.57227,35.704,51.57227s9.31164-.79937,16.61237-6.275c7.30105-5.476,17.03557-40.76314,23.11954-65.70779s33.97169-82.71618,40.05571-97.31754c6.08391-14.60178,37.21171-107.71486,46.94618-125.96719,9.73451-18.2519,13.993-34.67874,17.64354-37.72094s17.644,0,17.644,0,26.16136-34.07082,26.16136-49.8893-7.3011-36.50424-13.99343-45.02205c-6.69226-8.51738-10.95122-24.33587,0-31.637,10.95123-7.30068,13.99343-7.30068,13.99343-7.30068s.60835-26.16136,4.86726-26.16136c4.25848,0,10.95122,12.16794,10.95122,19.469,0,0,11.55959,0,12.77629,6.084s10.95123,1.82506,15.81849,16.42684.60835,31.02862-7.30068,32.85368c0,0,7.30068,21.2941,1.21671,41.3715s-26.76971,65.09943-26.76971,65.09943,7.30068,11.55958,3.0422,28.5952c-4.25891,17.0352-35.11438,95.15682-35.11438,95.15682s-12.3581,38.97-25.74317,63.91463c0,0-12.7597,35.61808-23.10252,59.34559,0,0,7.30105,34.67917-31.637,116.20545s-43.80534,121.68063-41.97985,134.45735c1.82506,12.77629,9.12617,82.13463,20.6858,130.19844,11.55953,48.06424,14.60172,161.22749,14.60172,161.22749l-24.94465,14.60136s14.60178,66.92492,24.3363,102.8208c0,0,37.55035,93.77972,25.89425,157.89l5.05779,82.87784Z"/><path class="cls-1" d="M2866.24323,1410.29321c-1.68084-17.64057-7.56018-39.48176-13.44171-52.08278-5.87934-12.60059-35.2815-21.84076-45.36147-29.40137-10.08081-7.56019-12.601-36.962-25.2016-48.72237-12.60059-11.76081-14.28058-86.52457-62.16359-121.80656,0,0-31.08137-14.28059-43.68154,3.36041,0,0-31.0818,5.04-39.48219,39.48177-8.40089,34.44178,0,88.20455,0,88.20455l-3.856,1.92845c-5.24929-12.97029-14.46734-36.42639-19.84426-50.08543-.24164-1.34391-.46711-2.66187-.66153-3.92537-.37955-2.46788-1.13843-3.40253-2.1603-3.23236-.69641-1.76125-1.16906-2.94818-1.3337-3.3434-4.803-11.526-29.37415-85.02665-37.0582-99.43444-7.68433-14.40736-11.046-27.37466-13.927-29.77575-2.88145-2.40151-13.92748,0-13.92748,0s-6.07376-7.9286-11.6319-17.1743l-2.59253-9.23976s2.23985-18.53055,5.70237-25.65808c3.46081-7.1271-.61219-23.41781-8.75733-24.63962s-12.21771-3.05454-15.06889-1.62895c-2.85075,1.42517-6.71955,4.07257-9.36738,4.07257-2.6474,0-8.9594,1.22139-10.99589,2.85076-2.0365,1.62894-7.73844,2.44363-8.756,5.49816-1.01846,3.05453-5.091,12.829,1.42517,19.14189,0,0,3.86879,17.71629,11.6068,24.23249a20.13675,20.13675,0,0,1,3.18344,3.494c6.59064,16.51235,15.476,35.85972,15.476,35.85972s-5.7632,9.12488-2.40151,22.57206,27.718,75.11431,27.718,75.11431,9.75579,30.76146,20.32116,50.45214c0,0,8.856,24.72088,16.691,43.24378.21484-.2995.4467-.55093.66962-.82788,1.01676,1.81358,18.36379,32.93792,22.90347,53.81978,4.67667,21.51235,22.44778,46.76628,21.51234,65.47254-.93508,18.70668,3.74159,19.34991-13.0945,51.297s-23.55267,52.52437-31.41831,61.87771-20.96021,50.50787-18.154,57.99063,9.35376,24.31842,9.35376,24.31842-8.25788,24.31843-9.7409,41.15453c-1.48345,16.83567-3.35446,69.21412,5.06338,101.01531C2572.20819,1797.569,2573.1437,1806,2573.1437,1806h174.98054s19.70338-38.09489,22.33043-63.05358c0,0,3.38339-43.67771,3.38339-51.23832s4.20062-73.924,4.20062-73.924,84.00436-32.76179,97.44473-57.963S2867.92323,1427.93421,2866.24323,1410.29321Z"/><path class="cls-1" d="M2517.72568,1046.86451l331.11785-205.40379s10.58111-8.89048-4.59754-10.881c0,0-.43989-51.23662-71.65732-71.09024-71.217-19.85362-91.66367-66.92534-102.20351-133.20448l-127.751,47.153s-6.43026,89.83393,73.78486,131.30837c80.21555,41.47487,83.09566,112.65487,83.09566,112.65487L2509.6345,1035.0986S2502.60652,1048.0038,2517.72568,1046.86451Z"/><path class="cls-1" d="M1351.96867,1444.90806c-1.503-15.77807-6.76167-35.31263-12.022-46.58292-5.25822-11.26987-31.55617-19.53455-40.5713-26.29665-9.01595-6.76166-11.27029-33.05873-22.54013-43.5773-11.27032-10.51858-12.77292-77.38734-55.59893-108.94349,0,0-27.79966-12.77246-39.0691,3.00519,0,0-27.79966,4.5082-35.31263,35.31262-7.51381,30.80485,0,78.89036,0,78.89036l-3.44932,1.72466c-4.69454-11.60084-12.93923-32.57971-17.74818-44.79614-.21614-1.20224-.41779-2.38109-.59179-3.511-.33948-2.20709-1.01846-3.043-1.93227-2.89117-.62281-1.57534-1.04523-2.63677-1.19288-2.9903-4.29592-10.30884-26.272-76.04768-33.14467-88.93373-6.8727-12.88648-9.87956-24.48392-12.45637-26.63188-2.57721-2.14753-12.4568,0-12.4568,0s-5.43222-7.09094-10.40371-15.36073l-2.31855-8.26383s2.00331-16.574,5.1-22.94857c3.0958-6.37454-.54709-20.94483-7.832-22.03774-7.28533-1.09291-10.92782-2.73207-13.47781-1.45707s-6.00994,3.64246-8.37825,3.64246c-2.36749,0-8.01328,1.09291-9.83451,2.55-1.82166,1.45707-6.9212,2.18582-7.8316,4.91788-.91083,2.73164-4.5533,11.47407,1.275,17.11985,0,0,3.46,15.84572,10.38116,21.674a17.98994,17.98994,0,0,1,2.84693,3.12473c5.89465,14.769,13.842,32.073,13.842,32.073s-5.15485,8.1613-2.148,20.18842c3.00648,12.02713,24.79107,67.18188,24.79107,67.18188s8.72542,27.51336,18.17491,45.12457c0,0,7.92094,22.11049,14.92852,38.67729.19184-.268.39945-.49264.599-.74066.90913,1.62214,16.42472,29.46009,20.48452,48.13657,4.18318,19.24058,20.07739,41.82754,19.241,58.55856-.83678,16.73144,2.46745,50.92606-12.5908,79.49956s-42.47844,117.09118-43.80491,132.14943c-1.32689,15.05783.07743,54.16778-20.83549,90.34827-14.7243,25.473-11.40728,35.98351-11.40728,35.98351h201.63964s17.62313-34.07209,19.97274-56.39529c0,0,3.026-39.06527,3.026-45.82736s3.75694-66.11748,3.75694-66.11748,75.13342-29.30183,87.15458-51.842S1353.47126,1460.68613,1351.96867,1444.90806Z"/><path class="cls-2" d="M2120.15767,1616.23316s-17.63376-184.47262-17.63376-229.23434c0-44.7621,5.42575-107.1572,0-138.35475-5.42532-31.19755,28.48487-100.37492,32.55408-128.85979s20.34644-40.69251,20.34644-70.5339c0,0,.88726-34.68734,3.30155-69.45653,2.41467-34.76882,4.34648-94.16605,4.34648-94.16605s-12.55583-15.453-24.14518-15.453l-2.41467-20.28193s12.55545-39.1153,9.17506-51.67075-7.04935-19.31622-13.18278-18.83336-8.54773-7.24363-14.34278-7.24363c-5.79468,0-11.20118-8.20934-16.22442-7.24325-5.02323.96572-11.3011,4.829-20.47621,4.829s-14.97011,8.69221-15.93583,15.453a69.94638,69.94638,0,0,1-2.41429,11.10687s-4.82934,7.24325-6.27791,12.07259c-1.44858,4.829-.96572,16.90155,6.27791,23.66194,7.24325,6.76077,24.14522,19.79908,25.11093,22.69661s1.44858,26.55984,1.44858,26.55984-11.10691,4.3461-8.20939,24.628,1.93181,71.46982-.48285,89.81994c-2.41467,18.3505-10.624,67.60658-14.48726,74.85021s-21.24765,36.21777-23.66232,40.56387c-2.41429,4.3461-5.31182,2.89752-14.96974,2.89752-9.6583,0-20.76476,14.0044-24.14518,19.31622s-24.14518,25.1109-29.45737,29.457c-5.31178,4.3461-11.58973-1.44858-11.58973-1.44858s-9.17506-12.07258-10.62364-24.14517v-7.72649s1.93143,4.829,8.20935-3.38039c6.27753-8.20934,9.17509-23.17946-2.41467-30.90595s3.86324-10.62363-9.17506-32.35452c-13.03831-21.73051-24.628-45.39283-64.22619-46.8414-39.59816-1.449-58.43151,25.59375-60.36295,29.457-1.93181,3.86325,3.86325,15.453,3.86325,15.453s-13.52155,25.59375-13.52155,41.52958,18.35051,29.45738,18.35051,29.45738,3.38038,41.52958,42.97853,65.67476c0,0,8.69221,2.41467,10.62364,11.58973,1.93185,9.17507-3.38039,13.52117-1.44858,25.59376,1.93144,12.07259-9.65829,31.87166-17.86764,42.01282-8.20934,10.14078-24.14518,27.52556-28.97414,36.70062s-11.10687,36.21777-11.10687,57.94866c0,21.73051,6.27791,51.18751,6.27791,65.67476s-9.17506,61.32867-13.52116,74.85021c-4.34648,13.52116,8.6922,126.52057,8.6922,126.52057l28.00843,166.602H2115.265s-2.89753-33.32024,6.76039-57.46542C2131.68365,1723.46618,2120.15767,1616.23316,2120.15767,1616.23316Z"/><path class="cls-2" d="M778.05457,1659.46859s13.59623-142.238,13.59623-176.75179-4.18351-82.62384,0-106.67886c4.18352-24.05465-21.96326-77.39427-25.10071-99.35753-3.13782-21.96326-15.688-31.376-15.688-54.38494,0,0,.5104-6.84074-1.35125-33.64956a197.53493,197.53493,0,0,1,3.42528-50.51716s1.71-53.91,10.64589-53.91l1.862-15.63858s-9.68094-30.15978-7.07463-39.84071,5.43517-14.89391,10.16454-14.52159,6.591-5.58493,11.059-5.58493c4.46832,0,8.63675-6.33,12.51018-5.58531,3.87305.74465,8.71332,3.72329,15.788,3.72329s11.54258,6.7023,12.28762,11.91528a53.92762,53.92762,0,0,0,1.86164,8.56394s3.72329,5.58494,4.84028,9.30861c1.117,3.72329.74466,13.03189-4.84028,18.24487-5.58531,5.21261-18.61721,15.26587-19.36186,17.49985-.74466,2.23435-1.117,20.47922-1.117,20.47922s2.1457,27.804-.08827,43.44254c-2.23435,15.63857,4.92855,30.654,6.79019,44.80284,1.86165,14.14925,8.19162,52.12832,11.17025,57.71326,2.979,5.58531,16.38323,27.92581,18.24488,31.27714,1.862,3.351,48.77736,36.48976,52.873,39.84072,4.096,3.351,8.93627-1.117,8.93627-1.117s7.07464-9.3086,8.19162-18.61721v-5.95764s-1.48932,3.72367-6.33-2.6063c-4.84027-6.33-7.07425-17.87255,1.86164-23.83019,8.93628-5.95726-2.97862-8.19124,7.07464-24.9468s18.98953-35.00043,49.522-36.11742c30.53211-1.117,43.564,34.62811,43.564,34.62811s10.42558,19.73419,10.42558,32.02142-14.14887,22.71283-14.14887,22.71283-2.60632,32.0218-33.1388,50.639a12.24666,12.24666,0,0,0-8.19162,8.93627c-1.4893,7.07463,2.60668,10.42559,1.11738,19.73419-1.48971,9.30861,7.44658,24.57485,13.77655,32.39376,6.33,7.81929,18.61719,21.22389,22.34048,28.29814,3.72367,7.07463,8.56395,27.92581,8.56395,44.68137s-4.84028,39.46876-4.84028,50.639,7.07463,47.28767,10.4256,57.71326-6.70231,97.554-6.70231,97.554l-21.59584,128.4588H781.8269s2.23435-25.69184-5.21261-44.309S778.05457,1659.46859,778.05457,1659.46859Z"/><path class="cls-2" d="M1814.51441,1295.59563s15.94375-72.471,18.84241-88.41437c2.899-15.94376,23.19078-56.52725,26.08982-126.0992,2.89866-69.572-11.59539-213.06425-11.59539-213.06425L1826.1098,749.16564l-11.59539-15.94338-10.14568-66.6733s-10.17058-45.38453-19.88694-60.76923c-9.71643-15.38432-17.00381-17.81332-28.33967-13.76486s-17.8137,1.61947-29.95909,4.04847c-12.14574,2.42938-20.2427,11.33585-18.62324,17.00378s-5.66793,19.43316-4.04847,30.769,18.18415,31.72757,25.10071,31.57818c15.03051-.32442,32.3881,21.86217,32.3881,40.48541,0,0-15.29906,6.91732-10.5259,20.2427,3.3215,9.27352,3.23851,19.43278.80951,29.14917s8.097,51.82089,8.097,51.82089l7.28736,83.39981-5.66793,105.26122,3.23892,33.198L1731.851,1040.591l2.429-21.86216s10.52631,9.71677,17.00378-6.47747c6.47784-16.19424,10.52634-35.627,0-42.91441-10.52593-7.28739,15.38432-28.33963-4.04847-56.67927s-39.67548-44.53349-58.29872-43.724-49.39188,8.09693-56.67927,17.81333c-7.28738,9.71676-16.19423,33.198-16.19423,51.01133,0,17.8137.80992,29.9591-4.858,35.627s-6.47785,32.38809,5.66793,36.43694c0,0,8.90687,30.76863,12.95531,44.53349,4.04847,13.76523,4.858,15.38432-17.00378,29.95909-21.86216,14.57478-21.05221,29.14955-21.05221,29.14955s-52.63083,28.33964-52.63083,80.16052c0,51.82126-25.10109,197.56789-25.10109,197.56789s-57.4888,189.47058-55.0598,195.94842c2.429,6.47747-21.86179,34.00756-19.43278,63.96666s25.10073,27.52971,42.10448,23.48124,26.72018-3.23892,26.72018-8.09693c0-4.85838-8.09693-12.14577-13.76486-11.33585-5.66793.80954,7.28739-10.52631-11.33585-17.00378-18.62322-6.47784,16.19423-32.3881,16.19423-32.3881l9.71639,5.66793,37.24651-82.58989s13.76483,34.8171,8.90647,65.58611c-4.858,30.76864-46.96289,106.88069-46.96289,127.93331,0,21.05224-5.66793,86.638-5.66793,86.638h299.59056s1.61946-78.54105,3.23892-97.16429,42.10449-127.12339,16.19424-197.56789C1795.81764,1443.8237,1837.26005,1365.17777,1814.51441,1295.59563Z"/><path class="cls-2" d="M874.60322,1005.2518s25.73861,134.61033,49.98827,161.59494,34.23465,65.4986,38.514,99.73325-1.42632,108.40961,0,134.08561-15.691,69.896-15.691,89.866c0,19.97034,1.42669,77.028,1.42669,77.028s-2.853,129.80665-1.42669,162.61461c1.42669,32.80833,17.31311,77.028,17.31311,77.028h233.74113s28.529-166.89394,14.26432-232.51023c-14.26432-65.6163-14.26432-131.52193-4.27934-168.46474,9.98536-36.94318,32.80834-71.17784,32.80834-71.17784s5.70565,131.233,0,181.15825c-5.70565,49.92566-1.42632,102.704-5.70565,116.96865-4.27931,14.26432-7.13235,31.38164,1.42632,31.38164,0,0-10.32072,18.54365-8.72653,49.92567,1.59418,31.38164.96043,42.79331,15.54162,42.79331,14.58157,0,24.56655-4.27933,35.97822-4.27933s17.11733-14.26469,19.97034-32.80833c2.85264-18.54365-12.838-47.07265-12.838-47.07265s14.95767,1.42631,13.18467-31.38164c-1.77337-32.80834,15.34395-193.99663,16.77067-212.54027,1.4263-18.54365,2.85262-124.10062,0-148.35029-2.853-24.2493,1.09056-91.05689-88.60753-113.99757,0,0-27.04573-22.53816-28.73611-24.22854-1.1615-1.1615-7.1116-10.0378-10.721-15.47863a12.21039,12.21039,0,0,0-7.69518-5.21261c-7.3451-1.53873-20.53732-4.65467-22.15263-7.48166,0,0-.51568-14.118,2.55123-19.97336,3.0669-5.855,1.1151-31.50575,4.46078-31.227,3.34605.27877,6.69175-11.98885,6.69175-22.02626s-4.46117-26.7662-12.268-25.92949c0,0-7.52769-30.6698-17.28633-37.91872-9.75864-7.24928-42.93742-23.14173-71.655-20.91115-28.718,2.23057-49.35,31.50612-48.51368,56.32051.83672,24.81439,7.831,35.60778,8.94646,45.6452,1.1151,10.03742,13.35859,24.058,17.81974,30.19185,4.46116,6.13418,11.71007,9.47986,9.47949,19.5169-2.2302,10.03742-17.5651-8.92193-21.46834-9.47948-3.9036-.55756-10.644,11.71006-14.80187,14.777-4.15748,3.0669-15.86755.55793-19.49238-7.52769-3.62446-8.08561-10.87373-19.51728-17.28633-32.9-6.41258-13.3831-35.13058-53.53239-36.24568-64.12736-1.11548-10.595-13.10431-41.82194-17.84425-47.3982-4.73956-5.57626-17.84388-52.13813-21.74749-62.45432-3.90323-10.31582-10.31581-46.28273-10.31581-46.28273l-10.87375-38.75541s3.06691-25.37194,7.80684-35.1302c4.73956-9.75865-.8367-32.06368-11.98922-33.73671-11.15251-1.67265-16.72877-4.182-20.632-2.2302-3.9036,1.95142-9.20109,5.57626-12.82554,5.57626s-12.26762,1.67265-15.05575,3.90323c-2.78851,2.23058-10.595,3.34568-11.98922,7.52806-1.39388,4.182-6.97014,17.5651,1.9518,26.20827,0,0,5.29749,24.25684,15.89245,33.17877,10.59459,8.92232,11.98885,24.53562,13.3831,30.11188,1.39388,5.57626,1.39388,19.23813,1.39388,19.23813s-8.64317.8367-6.41259,19.79606c2.2302,18.959,10.31582,39.31259,11.15252,46.5615.83633,7.24928,11.15252,54.08993,11.98884,62.17555s1.39425,14.21942,1.39425,14.21942"/><path class="cls-2" d="M1508.35736,1805.03264s-4.51433-64.71018,0-123.40085c4.51472-58.6903-13.5438-198.64489-13.5438-198.64489s26.14413-59.20937,33.17953-104.9402c7.0354-45.73045,6.15607-69.47539,13.19146-86.18455,7.03578-16.70953,10.55347-116.08592,6.15607-131.036-4.397-14.9505-76.51078-38.69543-81.78752-47.48986s15.82983-43.09247,25.50359-82.66685c9.67377-39.57477-15.82983-135.43346-55.40459-136.31279,0,0-33.41832-20.22724-68.59606,8.79443-35.17735,29.0213-24.62426,86.18455-39.57438,115.20622-14.9505,29.0213-31.66,45.73046-31.66,45.73046s-8.25652-.70882-14.73059-5.56419c-6.47368-4.85537-15.10554-36.14572-20.50035-58.26478-5.39519-22.11906-30.12395-73.34617-35.51876-86.29394s-32.99619-95.51352-41.628-111.69833c-8.63187-16.18443-12.40835-30.75053-15.64538-33.44812-3.23666-2.6976-15.645,0-15.645,0s-23.19795-30.21147-23.19795-44.23812,6.4737-32.36924,12.40833-39.92182c5.93425-7.553,9.71073-21.57962,0-28.05369-9.71111-6.4737-12.40833-6.4737-12.40833-6.4737s-.53944-23.19795-4.31592-23.19795-9.71073,10.78962-9.71073,17.2637c0,0-10.25056,0-11.32944,5.39481s-9.71072,1.61833-14.02666,14.5661-.53944,27.51387,6.47408,29.1322c0,0-6.47408,18.8824-1.07925,36.68516,5.39517,17.80313,23.73775,57.72533,23.73775,57.72533s-6.47408,10.25018-2.6976,25.3561c3.77648,15.10554,31.13644,84.378,31.13644,84.378s10.95862,34.55568,22.82713,56.67474c0,0,11.31435,31.58346,20.48564,52.62326,0,0-6.47368,30.75091,28.05331,103.04234,34.52739,72.29143,38.84331,107.8977,37.225,119.22677-1.61871,11.32944-8.0924,72.83087-18.34258,115.45029-10.25055,42.61979-12.94777,142.96453-12.94777,142.96453l22.11906,12.94777s-12.94777,59.34366-21.57962,91.17346c0,0-8.11315,99.11383,2.223,155.9621l6.89054,57.53294Z"/><path class="cls-2" d="M1467.87459,350.6374s118.80615,53.24984,124.96825,89.93274-25.09316,29.1288-2.24038,60.8194c22.85318,31.69059,65.95882,58.64993,49.37414,92.40361-16.58429,33.75406,16.82271,30.61737,24.28363,48.121,7.46053,17.50361-118.70694,195.747-132.92445,202.92158s-39.754-9.44026-17.70622-47.32313c22.04777-37.88325-21.12882-84.01659-41.66272-81.2013-20.534,2.81491-32.33908-4.26311-17.38481-34.45043,14.95427-30.187-28.681-126.17276-95.35093-154.96206-36.69133-15.8439-52.2068-20.763-61.21529-19.59143Z"/><path class="cls-2" d="M1298.01581,507.30736c-7.36046.95729-10.377,5.98067-17.05076,12.43343-14.84148,14.3507-167.15309,159.82007-167.15309,159.82007s-79.5211,85.59644-69.34788,41.46545L1452.946,337.07738s17.57152-12.47245,14.92862,13.56Z"/><path class="cls-2" d="M839.54205,1453.53028c-1.49045-15.64235-6.70381-35.00949-11.91868-46.18313-5.21336-11.17327-31.28545-19.36677-40.22361-26.071-8.93853-6.7038-11.17364-32.77514-22.3469-43.20337-11.17327-10.4286-12.663-76.72354-55.12167-108.009,0,0-27.561-12.663-38.73392,2.97976,0,0-27.561,4.46946-35.00986,35.00949-7.44885,30.54041,0,78.21324,0,78.21324l-3.41925,1.71c-4.65467-11.50108-12.82856-32.29982-17.59641-44.412-.21427-1.19168-.41382-2.36035-.58622-3.48073-.33687-2.18833-1.00985-3.01711-1.916-2.86622-.61754-1.56174-1.03626-2.61422-1.18225-2.96467-4.25934-10.22038-26.04681-75.39531-32.8604-88.17106-6.814-12.77537-9.79485-24.27381-12.34985-26.40292-2.555-2.12948-12.34986,0-12.34986,0s-5.38575-7.03049-10.3143-15.2289l-2.29886-8.19312s1.98613-16.43152,5.05643-22.75168c3.06917-6.31978-.54246-20.76517-7.765-21.84858s-10.8339-2.70854-13.362-1.44443c-2.52815,1.26373-5.95866,3.61125-8.30645,3.61125-2.34741,0-7.94464,1.08342-9.75027,2.52784-1.806,1.44443-6.86185,2.16683-7.76426,4.87536-.90322,2.70854-4.51448,11.37584,1.26385,16.9736,0,0,3.43053,15.7095,10.292,21.48757a17.84237,17.84237,0,0,1,2.82253,3.09822c5.84417,14.64192,13.72333,31.79773,13.72333,31.79773s-5.11049,8.09127-2.12956,20.01523,24.57836,66.60578,24.57836,66.60578,8.6507,27.27734,18.01891,44.73719c0,0,7.85286,21.92064,14.80074,38.34537.19012-.26558.39609-.48852.59339-.7341.90158,1.60815,16.284,29.20689,20.30947,47.72338,4.14692,19.07554,19.9047,41.46885,19.07554,58.05616-.82953,16.58807,3.31739,17.15807-11.61161,45.48639-14.92862,28.32831-20.88475,46.5747-27.85941,54.86892-6.97429,8.29347-18.58552,44.78624-16.09729,51.42139s8.29384,21.56377,8.29384,21.56377-7.32209,21.56378-8.6375,36.49278c-1.31541,14.92862-2.97411,61.37393,4.4902,89.57285,7.46469,28.19893,8.29385,35.67493,8.29385,35.67493H734.80291s17.47193-33.77971,19.80134-55.91122c0,0,3.00014-38.73014,3.00014-45.43432s3.72442-65.55028,3.72442-65.55028,74.48882-29.05072,86.40674-51.39725C859.65385,1563.774,841.03174,1469.173,839.54205,1453.53028Z"/><path class="cls-2" d="M820.03684,939.48348s-.39006-45.43282-63.54038-63.03753-81.28052-59.34441-90.62685-118.11581L552.58992,800.14189s-5.70188,79.658,65.42692,116.43449c71.1288,36.77683,73.683,99.894,73.683,99.894Z"/><path class="cls-2" d="M820.03684,939.48348c13.45929,1.76507,4.07638,9.64849,4.07638,9.64849L530.50251,1131.26876c-13.40637,1.01023-7.17425-10.43313-7.17425-10.43313l168.37163-104.3653Z"/><polygon class="cls-3" points="1421.244 485.741 1441.998 486.666 1432.01 441.862 1453.936 460.192 1482.479 443.082 1477.45 439.687 1453.74 454.008 1430.33 433.344 1425.264 435.345 1434.677 477.113 1421.244 485.741"/><polygon class="cls-3" points="1443.07 513.296 1450.453 493.877 1404.775 489.322 1429.052 474.245 1421.748 441.777 1416.949 445.489 1423.119 472.492 1396.16 488.249 1396.473 493.687 1439.087 497.835 1443.07 513.296"/><polygon class="cls-3" points="1497.948 513.031 1500.751 508.362 1467.87 480.94 1473.283 465.92 1456.248 477.811 1491.434 507.294 1462.88 506.086 1450.636 537.03 1456.692 536.665 1466.797 510.874 1497.948 513.031"/><polygon class="cls-3" points="1439.782 456.968 1445.677 476.888 1484.773 452.831 1474.597 479.537 1500.083 500.938 1501.651 495.078 1480.379 477.335 1492.276 448.465 1488.732 444.329 1452.32 466.852 1439.782 456.968"/><polygon class="cls-3" points="1476.239 500.993 1460.269 487.707 1441.135 529.434 1434.753 501.577 1401.673 497.948 1403.626 503.692 1431.17 506.62 1437.324 537.234 1442.568 538.703 1460.323 499.742 1476.239 500.993"/><polygon class="cls-3" points="636.82 854.363 647.503 861.21 655.95 834.477 661.92 850.879 682.243 850.582 680.626 847.248 663.711 847.552 657.672 829.462 654.382 828.967 646.561 853.92 636.82 854.363"/><polygon class="cls-3" points="639.911 875.608 649.761 867.61 627.022 851.21 644.468 850.681 650.555 831.289 646.882 831.78 641.87 847.938 622.799 848.004 621.298 850.973 642.543 866.219 639.911 875.608"/><polygon class="cls-3" points="668.988 892.28 671.9 890.672 662.927 866.11 670.388 859.832 657.745 860.897 667.304 887.253 652.587 877.867 636.638 890.467 639.95 892.129 653.19 881.597 668.988 892.28"/><polygon class="cls-3" points="655.43 844.84 652.442 857.171 680.468 856.436 666.911 867.43 673.821 886.544 676.444 883.928 670.64 868.037 685.77 856.428 685.165 853.157 659.026 853.903 655.43 844.84"/><polygon class="cls-3" points="661.206 879.269 656.837 867.357 633.945 883.542 639.107 866.869 622.74 854.818 622.012 858.451 635.669 868.436 629.542 886.496 631.863 888.879 653.179 873.733 661.206 879.269"/></svg>