<svg id="Слой_1" data-name="Слой 1" xmlns="http://www.w3.org/2000/svg" viewBox="0 0 32 32">
<path class="cls-1" d="M16,0A16,16,0,1,0,32,16,16,16,0,0,0,16,0Zm0,30.29A14.29,14.29,0,1,1,30.29,16,14.31,14.31,0,0,1,16,30.29Z"/><circle class="cls-1" cx="9.86" cy="10.47" r="2.56"/><path class="cls-1" d="M20.09,10.47c1.42,0,2.56,1.42,2.56,0a2.56,2.56,0,1,0-5.11,0C17.54,11.89,18.68,10.47,20.09,10.47Z"/><path class="cls-1" d="M22.14,20,20.89,21a8.31,8.31,0,0,1-9.65.3L9.31,20a.85.85,0,0,0-1,1.42l1.93,1.28a10,10,0,0,0,11.63-.37l1.25-.94a.86.86,0,0,0,.16-1.2A.85.85,0,0,0,22.14,20Z"/></svg>