<svg id="timeSpeed" xmlns="http://www.w3.org/2000/svg" viewBox="0 0 32 32">
	<path class="timeSpeed-1" d="M16,4.7087A15.92132,15.92132,0,0,0,0,20.55023,15.64566,15.64566,0,0,0,1.5198,27.2913H30.48016A15.64511,15.64511,0,0,0,32,20.55023,15.92133,15.92133,0,0,0,16,4.7087Zm0,1.42965A2.08927,2.08927,0,1,1,13.9107,8.22762,2.08926,2.08926,0,0,1,16,6.13835ZM4.92307,20.48971a1.70941,1.70941,0,1,1,1.7094-1.7094A1.70937,1.70937,0,0,1,4.92307,20.48971ZM7.962,13.31781a1.89934,1.89934,0,1,1,1.89934-1.89934A1.89932,1.89932,0,0,1,7.962,13.31781ZM16,25.39762a3.48718,3.48718,0,1,1,3.4872-3.48721A3.48716,3.48716,0,0,1,16,25.39762Zm5.34856-13.97915a2.27921,2.27921,0,1,1,2.27921,2.27921A2.2792,2.2792,0,0,1,21.34854,11.41847Zm6.15384,9.831a2.46914,2.46914,0,1,1,2.46914-2.46914A2.46914,2.46914,0,0,1,27.50238,21.24945Z" />
	<path class="timeSpeed-2" d="M14.8604,20.1518l1.00836-8.16857a.13129.13129,0,1,1,.26248,0L17.1396,20.1518Z" />
</svg>
