<svg id="umbrella" xmlns="http://www.w3.org/2000/svg" viewBox="0 0 32 32">
	<path class="umbrella-1" d="M12.50387,31.42763A5.21648,5.21648,0,0,1,8.64254,29.705c-.979-1.14551-.97119-3.86914-.97119-3.86914h1.5s-.00635,2.17187.61181,2.89453A3.6286,3.6286,0,0,0,12.06,29.90029,3.01818,3.01818,0,0,0,15.46285,27.622c.16455-.61621.019-12.87256.019-12.87256l1.5-.02832s.14454,12.521-.0747,13.30518A4.48755,4.48755,0,0,1,12.50387,31.42763Z" />
	<path class="umbrella-1" d="M15.91074.57237l-.834,1.43632a.95354.95354,0,0,0-.12893.47881V3.88911h2.24682V2.4875a.95354.95354,0,0,0-.12893-.47881l-.834-1.43632Z" />
	<path class="umbrella-1" d="M31.35338,13.98192a13.22063,13.22063,0,0,0-3.52-5.16951A17.47926,17.47926,0,0,0,17.23181,4.19109,17.15926,17.15926,0,0,0,1.89842,11.4812,11.65288,11.65288,0,0,0,.64659,13.98192c-2.56777,7.2755,3.13844-2.2824,6.16986.642s3.76846,4.70765,7.50129.07134a2.30569,2.30569,0,0,1,3.36447,0c3.73284,4.63634,4.46989,2.85314,7.50131-.07132S33.92122,21.25742,31.35338,13.98192Z" />
</svg>
