<svg id="users" xmlns="http://www.w3.org/2000/svg" viewBox="0 0 32 32">
	<circle class="cls-1" cx="16.07964" cy="11.73555" r="5.07098" />
	<path class="cls-1" d="M25.88481,21.78877a4.98223,4.98223,0,0,0-4.9822-4.98225c-1.10928,0-1.32666,1.05841-2.07959,1.64725-.74173.58012-4.90431.58012-5.646,0-.75293-.58884-.97036-1.64725-2.07964-1.64725a4.98223,4.98223,0,0,0-4.9822,4.98225S5.12632,28.85009,8.92955,28.774c3.31736-.06633,10.82354-.06633,14.1409,0C26.87368,28.85009,25.88481,21.78877,25.88481,21.78877Z" />
	<path class="cls-1" d="M25.90605,9.45511a3.11486,3.11486,0,1,0-3.11489-3.11489A3.11486,3.11486,0,0,0,25.90605,9.45511Z" />
	<path class="cls-1" d="M31.92891,12.51543a3.06035,3.06035,0,0,0-3.06036-3.06036c-.68133,0-.81489.65012-1.27739,1.01183a5.75886,5.75886,0,0,1-3.468,0c-.46246-.36171-.59606-1.01183-1.27739-1.01183a2.99241,2.99241,0,0,0-.84356.13469c1.05691,2.0948.38827,5.107-2.00108,6.03716a1.80512,1.80512,0,0,0,.76052,1.00275c.341-.4476,8.22641.15223,9.43854.17647C32.53632,16.85288,31.92891,12.51543,31.92891,12.51543Z" />
	<path class="cls-1" d="M6.094,9.45511A3.11486,3.11486,0,1,1,9.20884,6.34022,3.11486,3.11486,0,0,1,6.094,9.45511Z" />
	<path class="cls-1" d="M.07109,12.51543A3.06035,3.06035,0,0,1,3.13145,9.45507c.68133,0,.81489.65012,1.27739,1.01183a5.75886,5.75886,0,0,0,3.468,0c.46246-.36171.59606-1.01183,1.27739-1.01183a2.99241,2.99241,0,0,1,.84356.13469c-1.05691,2.0948-.38827,5.107,2.00108,6.03716a1.80512,1.80512,0,0,1-.76052,1.00275c-.341-.4476-8.22641.15223-9.43854.17647C-.53632,16.85288.07109,12.51543.07109,12.51543Z" />
</svg>
