<svg id="userint" xmlns="http://www.w3.org/2000/svg" viewBox="0 0 32 32">
	<path class="user-face" d="M19.00186,19.66141A3.11956,3.11956,0,0,0,17.55208,17.029a3.985,3.985,0,1,0-3.29839-.01923A3.02439,3.02439,0,0,0,12.84,19.56659l-.96478,11.3746a.96254.96254,0,0,0,.95906,1.04392h6.17255a.9625.9625,0,0,0,.959-1.0445Z" />
	<path class="user-linesmall" d="M8.12906,18.26186c-.89778-1.54472-.9107-4.28792-.68881-6.10048A8.85048,8.85048,0,0,1,15.95,4.54858a8.77092,8.77092,0,0,1,8.63574,7.88575c.20963,2.31608.099,6.10771-1.84355,6.82875a.97266.97266,0,0,1-1.3573-1.15486c.34837-1.99655,2.39063-3.53581,2.20476-5.584a7.76176,7.76176,0,0,0-7.64209-6.97559,7.8241,7.8241,0,0,0-7.51514,6.73389c-.25881,2.11591,1.78527,3.699,2.19751,5.75118.25021,1.24556-.35333,1.751-1.50188,1.208a2.33555,2.33555,0,0,1-.999-.97976" />
	<path class="user-linebig" d="M8.805,24.48608a.74913.74913,0,0,1-.43457-.13867,13.62174,13.62174,0,0,1-5.582-12.58252A13.66117,13.66117,0,0,1,15.92365.01489a13.539,13.539,0,0,1,13.3291,12.17188,13.50579,13.50579,0,0,1-5.58594,12.1333.74988.74988,0,0,1-.874-1.21875,12.00018,12.00018,0,0,0,4.96582-10.77979A12.02364,12.02364,0,0,0,15.91974,1.51489,12.11938,12.11938,0,0,0,4.27765,11.94653,12.1007,12.1007,0,0,0,9.24054,23.12476.75038.75038,0,0,1,8.805,24.48608Z" />
</svg>
